%TF.GenerationSoftware,KiCad,Pcbnew,(6.0.7)*%
%TF.CreationDate,2022-11-11T17:02:31+01:00*%
%TF.ProjectId,pin_distribution_pcb,70696e5f-6469-4737-9472-69627574696f,rev?*%
%TF.SameCoordinates,Original*%
%TF.FileFunction,Copper,L2,Bot*%
%TF.FilePolarity,Positive*%
%FSLAX46Y46*%
G04 Gerber Fmt 4.6, Leading zero omitted, Abs format (unit mm)*
G04 Created by KiCad (PCBNEW (6.0.7)) date 2022-11-11 17:02:31*
%MOMM*%
%LPD*%
G01*
G04 APERTURE LIST*
G04 Aperture macros list*
%AMRoundRect*
0 Rectangle with rounded corners*
0 $1 Rounding radius*
0 $2 $3 $4 $5 $6 $7 $8 $9 X,Y pos of 4 corners*
0 Add a 4 corners polygon primitive as box body*
4,1,4,$2,$3,$4,$5,$6,$7,$8,$9,$2,$3,0*
0 Add four circle primitives for the rounded corners*
1,1,$1+$1,$2,$3*
1,1,$1+$1,$4,$5*
1,1,$1+$1,$6,$7*
1,1,$1+$1,$8,$9*
0 Add four rect primitives between the rounded corners*
20,1,$1+$1,$2,$3,$4,$5,0*
20,1,$1+$1,$4,$5,$6,$7,0*
20,1,$1+$1,$6,$7,$8,$9,0*
20,1,$1+$1,$8,$9,$2,$3,0*%
G04 Aperture macros list end*
%TA.AperFunction,Profile*%
%ADD10C,0.100000*%
%TD*%
%TA.AperFunction,ComponentPad*%
%ADD11O,2.400000X1.700000*%
%TD*%
%TA.AperFunction,ComponentPad*%
%ADD12R,1.700000X1.700000*%
%TD*%
%TA.AperFunction,ComponentPad*%
%ADD13R,2.400000X1.700000*%
%TD*%
%TA.AperFunction,SMDPad,CuDef*%
%ADD14RoundRect,0.250000X-0.450000X0.350000X-0.450000X-0.350000X0.450000X-0.350000X0.450000X0.350000X0*%
%TD*%
%TA.AperFunction,SMDPad,CuDef*%
%ADD15RoundRect,0.250000X0.450000X-0.350000X0.450000X0.350000X-0.450000X0.350000X-0.450000X-0.350000X0*%
%TD*%
%TA.AperFunction,Conductor*%
%ADD16C,0.400000*%
%TD*%
G04 APERTURE END LIST*
D10*
X0Y0D02*
X37000000Y0D01*
X37000000Y0D02*
X37000000Y-57000000D01*
X37000000Y-57000000D02*
X0Y-57000000D01*
X0Y-57000000D02*
X0Y0D01*
D11*
%TO.P,J4,4,Pin_4*%
%TO.N,Net-(U1-Pad26)*%
X33525000Y-43820000D03*
%TO.P,J4,3,Pin_3*%
%TO.N,Net-(U1-Pad27)*%
X33525000Y-41280000D03*
%TO.P,J4,2,Pin_2*%
%TO.N,GND*%
X33525000Y-38740000D03*
D12*
%TO.P,J4,1,Pin_1*%
%TO.N,3V3_out*%
X33525000Y-36200000D03*
%TD*%
D11*
%TO.P,J2,2,Pin_2*%
%TO.N,Net-(R1-Pad1)*%
X3500000Y-49960000D03*
D13*
%TO.P,J2,1,Pin_1*%
%TO.N,GND*%
X3500000Y-52500000D03*
%TD*%
D11*
%TO.P,U1,40,VBUS*%
%TO.N,unconnected-(U1-Pad40)*%
X27425000Y-4500259D03*
%TO.P,U1,39,VSYS*%
%TO.N,Net-(J5-Pad2)*%
X27425000Y-7040259D03*
%TO.P,U1,38,GND*%
%TO.N,GND*%
X27425000Y-9580259D03*
%TO.P,U1,37,3V3_EN*%
%TO.N,unconnected-(U1-Pad37)*%
X27425000Y-12120259D03*
%TO.P,U1,36,3V3_OUT*%
%TO.N,3V3_out*%
X27425000Y-14660259D03*
%TO.P,U1,35,ADC_VREF*%
%TO.N,unconnected-(U1-Pad35)*%
X27425000Y-17200259D03*
%TO.P,U1,34,GP_28*%
%TO.N,unconnected-(U1-Pad34)*%
X27425000Y-19740259D03*
%TO.P,U1,33,GND*%
%TO.N,GND*%
X27425000Y-22280259D03*
%TO.P,U1,32,GP27*%
%TO.N,Net-(J6-Pad1)*%
X27425000Y-24820259D03*
%TO.P,U1,31,GP26*%
%TO.N,Net-(J6-Pad4)*%
X27425000Y-27360259D03*
%TO.P,U1,30,RUN*%
%TO.N,unconnected-(U1-Pad30)*%
X27425000Y-29900259D03*
%TO.P,U1,29,GP22*%
%TO.N,unconnected-(U1-Pad29)*%
X27425000Y-32440259D03*
%TO.P,U1,28,GND*%
%TO.N,GND*%
X27425000Y-34980259D03*
%TO.P,U1,27,GP21*%
%TO.N,Net-(U1-Pad27)*%
X27425000Y-37520259D03*
%TO.P,U1,26,GP20*%
%TO.N,Net-(U1-Pad26)*%
X27425000Y-40060259D03*
%TO.P,U1,25,GP19*%
%TO.N,unconnected-(U1-Pad25)*%
X27425000Y-42600259D03*
%TO.P,U1,24,GP18*%
%TO.N,unconnected-(U1-Pad24)*%
X27425000Y-45140259D03*
%TO.P,U1,23,GND*%
%TO.N,GND*%
X27425000Y-47680259D03*
%TO.P,U1,22,GP17*%
%TO.N,unconnected-(U1-Pad22)*%
X27425000Y-50220259D03*
%TO.P,U1,21,GP16*%
%TO.N,unconnected-(U1-Pad21)*%
X27425000Y-52760259D03*
%TO.P,U1,20,GP15*%
%TO.N,unconnected-(U1-Pad20)*%
X9645000Y-52760259D03*
%TO.P,U1,19,GP14*%
%TO.N,unconnected-(U1-Pad19)*%
X9645000Y-50220259D03*
%TO.P,U1,18,GND*%
%TO.N,GND*%
X9645000Y-47680259D03*
%TO.P,U1,17,GP13*%
%TO.N,Net-(R1-Pad2)*%
X9645000Y-45140259D03*
%TO.P,U1,16,GP12*%
%TO.N,unconnected-(U1-Pad16)*%
X9645000Y-42600259D03*
%TO.P,U1,15,GP11*%
%TO.N,unconnected-(U1-Pad15)*%
X9645000Y-40060259D03*
%TO.P,U1,14,GP10*%
%TO.N,Net-(U1-Pad14)*%
X9645000Y-37520259D03*
%TO.P,U1,13,GND*%
%TO.N,GND*%
X9645000Y-34980259D03*
%TO.P,U1,12,GP9*%
%TO.N,unconnected-(U1-Pad12)*%
X9645000Y-32440259D03*
%TO.P,U1,11,GP8*%
%TO.N,unconnected-(U1-Pad11)*%
X9645000Y-29900259D03*
%TO.P,U1,10,GP7*%
%TO.N,unconnected-(U1-Pad10)*%
X9645000Y-27360259D03*
%TO.P,U1,9,GP6*%
%TO.N,unconnected-(U1-Pad9)*%
X9645000Y-24820259D03*
%TO.P,U1,8,GND*%
%TO.N,GND*%
X9645000Y-22280259D03*
%TO.P,U1,7,GP5*%
%TO.N,unconnected-(U1-Pad7)*%
X9645000Y-19740259D03*
%TO.P,U1,6,GP4*%
%TO.N,Net-(U1-Pad6)*%
X9645000Y-17200259D03*
%TO.P,U1,5,GP3*%
%TO.N,Net-(U1-Pad5)*%
X9645000Y-14660259D03*
%TO.P,U1,4,GP2*%
%TO.N,Net-(U1-Pad4)*%
X9645000Y-12120259D03*
%TO.P,U1,3,GND*%
%TO.N,GND*%
X9645000Y-9580259D03*
%TO.P,U1,2,GP1*%
%TO.N,unconnected-(U1-Pad2)*%
X9645000Y-7040259D03*
%TO.P,U1,1,GP0*%
%TO.N,unconnected-(U1-Pad1)*%
X9645000Y-4500259D03*
%TD*%
%TO.P,J1,5,Pin_5*%
%TO.N,Net-(U1-Pad4)*%
X3500000Y-11960000D03*
%TO.P,J1,4,Pin_4*%
%TO.N,Net-(U1-Pad5)*%
X3500000Y-14500000D03*
%TO.P,J1,3,Pin_3*%
%TO.N,Net-(U1-Pad6)*%
X3500000Y-17040000D03*
%TO.P,J1,2,Pin_2*%
%TO.N,3V3_out*%
X3500000Y-19580000D03*
D13*
%TO.P,J1,1,Pin_1*%
%TO.N,GND*%
X3500000Y-22120000D03*
%TD*%
D11*
%TO.P,J5,2,Pin_2*%
%TO.N,Net-(J5-Pad2)*%
X33500000Y-6960000D03*
D13*
%TO.P,J5,1,Pin_1*%
%TO.N,GND*%
X33500000Y-9500000D03*
%TD*%
D11*
%TO.P,J6,4,Pin_4*%
%TO.N,Net-(J6-Pad4)*%
X33525000Y-27820000D03*
%TO.P,J6,3,Pin_3*%
%TO.N,3V3_out*%
X33525000Y-25280000D03*
%TO.P,J6,2,Pin_2*%
X33525000Y-22740000D03*
D13*
%TO.P,J6,1,Pin_1*%
%TO.N,Net-(J6-Pad1)*%
X33525000Y-20200000D03*
%TD*%
%TO.P,J3,1,Pin_1*%
%TO.N,GND*%
X3525000Y-35250000D03*
D11*
%TO.P,J3,2,Pin_2*%
%TO.N,Net-(U1-Pad14)*%
X3525000Y-37790000D03*
%TD*%
D14*
%TO.P,R3,2*%
%TO.N,GND*%
X33500000Y-33000000D03*
%TO.P,R3,1*%
%TO.N,Net-(J6-Pad4)*%
X33500000Y-31000000D03*
%TD*%
D15*
%TO.P,R1,1*%
%TO.N,Net-(R1-Pad1)*%
X3500000Y-47000000D03*
%TO.P,R1,2*%
%TO.N,Net-(R1-Pad2)*%
X3500000Y-45000000D03*
%TD*%
D14*
%TO.P,R2,2*%
%TO.N,Net-(J6-Pad1)*%
X33500000Y-17000000D03*
%TO.P,R2,1*%
%TO.N,GND*%
X33500000Y-15000000D03*
%TD*%
D16*
%TO.N,Net-(U1-Pad26)*%
X27425000Y-40060259D02*
X27810259Y-40060259D01*
X27810259Y-40060259D02*
X31570000Y-43820000D01*
X31570000Y-43820000D02*
X33525000Y-43820000D01*
%TO.N,Net-(U1-Pad27)*%
X32780000Y-41280000D02*
X33525000Y-41280000D01*
X29020259Y-37520259D02*
X32780000Y-41280000D01*
X27425000Y-37520259D02*
X29020259Y-37520259D01*
%TO.N,Net-(R1-Pad1)*%
X3500000Y-47000000D02*
X3500000Y-49960000D01*
%TO.N,3V3_out*%
X33835000Y-22740000D02*
X33525000Y-22740000D01*
X35160079Y-14160079D02*
X35160079Y-21414921D01*
X34500000Y-13500000D02*
X35160079Y-14160079D01*
X35160079Y-21414921D02*
X33835000Y-22740000D01*
X28585259Y-13500000D02*
X34500000Y-13500000D01*
X27425000Y-14660259D02*
X28585259Y-13500000D01*
X35169294Y-34555706D02*
X35169294Y-26924294D01*
X35169294Y-26924294D02*
X33525000Y-25280000D01*
X33525000Y-36200000D02*
X35169294Y-34555706D01*
X23034065Y-18465935D02*
X26839741Y-14660259D01*
X7534065Y-18465935D02*
X23034065Y-18465935D01*
X6420000Y-19580000D02*
X7534065Y-18465935D01*
X3500000Y-19580000D02*
X6420000Y-19580000D01*
%TO.N,Net-(U1-Pad14)*%
X3794741Y-37520259D02*
X3525000Y-37790000D01*
X9645000Y-37520259D02*
X3794741Y-37520259D01*
%TO.N,Net-(R1-Pad2)*%
X3570259Y-45140259D02*
X9645000Y-45140259D01*
X3500000Y-45070000D02*
X3570259Y-45140259D01*
%TO.N,3V3_out*%
X33525000Y-22740000D02*
X33525000Y-25280000D01*
X26839741Y-14660259D02*
X27425000Y-14660259D01*
%TO.N,Net-(U1-Pad6)*%
X3610831Y-17150831D02*
X9595572Y-17150831D01*
X3500000Y-17040000D02*
X3610831Y-17150831D01*
X9595572Y-17150831D02*
X9645000Y-17200259D01*
%TO.N,Net-(U1-Pad5)*%
X9484741Y-14500000D02*
X9645000Y-14660259D01*
X3500000Y-14500000D02*
X9484741Y-14500000D01*
%TO.N,Net-(U1-Pad4)*%
X9484741Y-11960000D02*
X9645000Y-12120259D01*
X3500000Y-11960000D02*
X9484741Y-11960000D01*
%TO.N,Net-(J5-Pad2)*%
X33419741Y-7040259D02*
X33500000Y-6960000D01*
X27425000Y-7040259D02*
X33419741Y-7040259D01*
%TO.N,Net-(J6-Pad1)*%
X33525000Y-17025000D02*
X33525000Y-20200000D01*
X27425000Y-24820259D02*
X28904741Y-24820259D01*
X28904741Y-24820259D02*
X33525000Y-20200000D01*
X33500000Y-17000000D02*
X33525000Y-17025000D01*
%TO.N,Net-(J6-Pad4)*%
X33525000Y-30975000D02*
X33500000Y-31000000D01*
X33525000Y-27820000D02*
X33525000Y-30975000D01*
X33525000Y-27820000D02*
X27884741Y-27820000D01*
X27884741Y-27820000D02*
X27425000Y-27360259D01*
%TD*%
%TA.AperFunction,Conductor*%
%TO.N,GND*%
G36*
X36335319Y-527758D02*
G01*
X36417398Y-582602D01*
X36472242Y-664681D01*
X36491500Y-761500D01*
X36491500Y-56238500D01*
X36472242Y-56335319D01*
X36417398Y-56417398D01*
X36335319Y-56472242D01*
X36238500Y-56491500D01*
X761500Y-56491500D01*
X664681Y-56472242D01*
X582602Y-56417398D01*
X527758Y-56335319D01*
X508500Y-56238500D01*
X508500Y-53391245D01*
X1792001Y-53391245D01*
X1792740Y-53404888D01*
X1797035Y-53444436D01*
X1804318Y-53475064D01*
X1843501Y-53579585D01*
X1860637Y-53610885D01*
X1926285Y-53698479D01*
X1951521Y-53723715D01*
X2039115Y-53789363D01*
X2070415Y-53806499D01*
X2174936Y-53845682D01*
X2205566Y-53852966D01*
X2245095Y-53857260D01*
X2258764Y-53858000D01*
X3221082Y-53858000D01*
X3241866Y-53853866D01*
X3246000Y-53833082D01*
X3246000Y-53833081D01*
X3754000Y-53833081D01*
X3758134Y-53853865D01*
X3778918Y-53857999D01*
X4741245Y-53857999D01*
X4754888Y-53857260D01*
X4794436Y-53852965D01*
X4825064Y-53845682D01*
X4929585Y-53806499D01*
X4960885Y-53789363D01*
X5048479Y-53723715D01*
X5073715Y-53698479D01*
X5139363Y-53610885D01*
X5156499Y-53579585D01*
X5195682Y-53475064D01*
X5202966Y-53444434D01*
X5207260Y-53404905D01*
X5208000Y-53391236D01*
X5208000Y-52778918D01*
X5203866Y-52758134D01*
X5183082Y-52754000D01*
X3778918Y-52754000D01*
X3758134Y-52758134D01*
X3754000Y-52778918D01*
X3754000Y-53833081D01*
X3246000Y-53833081D01*
X3246000Y-52778918D01*
X3241866Y-52758134D01*
X3221082Y-52754000D01*
X1816919Y-52754000D01*
X1796135Y-52758134D01*
X1792001Y-52778918D01*
X1792001Y-53391245D01*
X508500Y-53391245D01*
X508500Y-52696033D01*
X7933102Y-52696033D01*
X7941751Y-52926417D01*
X7943952Y-52936907D01*
X7977176Y-53095252D01*
X7989093Y-53152050D01*
X7993027Y-53162012D01*
X7993029Y-53162018D01*
X8036941Y-53273208D01*
X8073776Y-53366480D01*
X8079332Y-53375636D01*
X8079333Y-53375638D01*
X8172308Y-53528856D01*
X8193377Y-53563576D01*
X8344477Y-53737704D01*
X8522755Y-53883883D01*
X8723114Y-53997934D01*
X8733185Y-54001590D01*
X8733186Y-54001590D01*
X8929749Y-54072939D01*
X8929753Y-54072940D01*
X8939825Y-54076596D01*
X9166692Y-54117620D01*
X9175025Y-54118013D01*
X9187849Y-54118618D01*
X9187859Y-54118618D01*
X9190844Y-54118759D01*
X10052890Y-54118759D01*
X10058216Y-54118307D01*
X10058218Y-54118307D01*
X10214045Y-54105085D01*
X10214047Y-54105085D01*
X10224720Y-54104179D01*
X10235086Y-54101489D01*
X10235089Y-54101488D01*
X10437500Y-54048952D01*
X10437499Y-54048952D01*
X10447872Y-54046260D01*
X10457638Y-54041861D01*
X10457643Y-54041859D01*
X10648305Y-53955972D01*
X10658075Y-53951571D01*
X10849319Y-53822818D01*
X11016135Y-53663683D01*
X11153754Y-53478717D01*
X11215886Y-53356513D01*
X11253384Y-53282760D01*
X11253386Y-53282755D01*
X11258240Y-53273208D01*
X11326607Y-53053032D01*
X11356898Y-52824485D01*
X11352076Y-52696033D01*
X25713102Y-52696033D01*
X25721751Y-52926417D01*
X25723952Y-52936907D01*
X25757176Y-53095252D01*
X25769093Y-53152050D01*
X25773027Y-53162012D01*
X25773029Y-53162018D01*
X25816941Y-53273208D01*
X25853776Y-53366480D01*
X25859332Y-53375636D01*
X25859333Y-53375638D01*
X25952308Y-53528856D01*
X25973377Y-53563576D01*
X26124477Y-53737704D01*
X26302755Y-53883883D01*
X26503114Y-53997934D01*
X26513185Y-54001590D01*
X26513186Y-54001590D01*
X26709749Y-54072939D01*
X26709753Y-54072940D01*
X26719825Y-54076596D01*
X26946692Y-54117620D01*
X26955025Y-54118013D01*
X26967849Y-54118618D01*
X26967859Y-54118618D01*
X26970844Y-54118759D01*
X27832890Y-54118759D01*
X27838216Y-54118307D01*
X27838218Y-54118307D01*
X27994045Y-54105085D01*
X27994047Y-54105085D01*
X28004720Y-54104179D01*
X28015086Y-54101489D01*
X28015089Y-54101488D01*
X28217500Y-54048952D01*
X28217499Y-54048952D01*
X28227872Y-54046260D01*
X28237638Y-54041861D01*
X28237643Y-54041859D01*
X28428305Y-53955972D01*
X28438075Y-53951571D01*
X28629319Y-53822818D01*
X28796135Y-53663683D01*
X28928655Y-53485570D01*
X31466625Y-53485570D01*
X31483502Y-53686562D01*
X31539098Y-53880448D01*
X31544752Y-53891449D01*
X31544753Y-53891452D01*
X31572576Y-53945588D01*
X31631295Y-54059842D01*
X31638980Y-54069538D01*
X31677634Y-54118307D01*
X31756580Y-54217913D01*
X31910181Y-54348638D01*
X31963026Y-54378172D01*
X32075439Y-54440998D01*
X32075443Y-54441000D01*
X32086249Y-54447039D01*
X32278076Y-54509367D01*
X32432942Y-54527834D01*
X32466062Y-54531783D01*
X32466063Y-54531783D01*
X32478357Y-54533249D01*
X32490703Y-54532299D01*
X32497410Y-54531783D01*
X32531951Y-54529125D01*
X32667116Y-54518725D01*
X32667117Y-54518725D01*
X32679461Y-54517775D01*
X32691383Y-54514446D01*
X32691385Y-54514446D01*
X32861810Y-54466862D01*
X32861809Y-54466862D01*
X32873730Y-54463534D01*
X33053764Y-54372593D01*
X33094687Y-54340620D01*
X33202955Y-54256032D01*
X33202957Y-54256030D01*
X33212705Y-54248414D01*
X33232111Y-54225933D01*
X33336413Y-54105098D01*
X33336414Y-54105097D01*
X33344500Y-54095729D01*
X33357447Y-54072939D01*
X33403066Y-53992633D01*
X33444127Y-53920353D01*
X33458519Y-53877091D01*
X33503888Y-53740704D01*
X33507793Y-53728965D01*
X33511645Y-53698479D01*
X33532187Y-53535869D01*
X33533073Y-53528856D01*
X33533476Y-53500000D01*
X33513794Y-53299263D01*
X33509527Y-53285128D01*
X33459071Y-53118013D01*
X33459070Y-53118011D01*
X33455496Y-53106173D01*
X33360804Y-52928083D01*
X33233324Y-52771777D01*
X33221034Y-52761610D01*
X33087451Y-52651101D01*
X33087449Y-52651100D01*
X33077912Y-52643210D01*
X32900488Y-52547277D01*
X32888675Y-52543620D01*
X32888672Y-52543619D01*
X32719626Y-52491290D01*
X32707809Y-52487632D01*
X32507215Y-52466549D01*
X32494897Y-52467670D01*
X32494892Y-52467670D01*
X32318669Y-52483708D01*
X32318664Y-52483709D01*
X32306346Y-52484830D01*
X32112853Y-52541778D01*
X32101886Y-52547511D01*
X32101887Y-52547511D01*
X31992286Y-52604809D01*
X31934107Y-52635224D01*
X31776915Y-52761610D01*
X31647265Y-52916120D01*
X31641306Y-52926960D01*
X31641305Y-52926961D01*
X31566374Y-53063261D01*
X31550096Y-53092870D01*
X31489108Y-53285128D01*
X31466625Y-53485570D01*
X28928655Y-53485570D01*
X28933754Y-53478717D01*
X28995886Y-53356513D01*
X29033384Y-53282760D01*
X29033386Y-53282755D01*
X29038240Y-53273208D01*
X29106607Y-53053032D01*
X29136898Y-52824485D01*
X29128249Y-52594101D01*
X29118474Y-52547511D01*
X29083108Y-52378956D01*
X29083107Y-52378951D01*
X29080907Y-52368468D01*
X29076973Y-52358506D01*
X29076971Y-52358500D01*
X29000160Y-52164005D01*
X28996224Y-52154038D01*
X28933915Y-52051355D01*
X28882178Y-51966096D01*
X28882177Y-51966094D01*
X28876623Y-51956942D01*
X28725523Y-51782814D01*
X28610244Y-51688291D01*
X28547586Y-51612010D01*
X28518889Y-51517557D01*
X28528522Y-51419312D01*
X28575018Y-51332233D01*
X28612130Y-51295476D01*
X28620432Y-51288801D01*
X28629319Y-51282818D01*
X28796135Y-51123683D01*
X28933754Y-50938717D01*
X29038240Y-50733208D01*
X29106607Y-50513032D01*
X29127977Y-50351791D01*
X29135491Y-50295102D01*
X29135491Y-50295100D01*
X29136898Y-50284485D01*
X29128249Y-50054101D01*
X29095029Y-49895774D01*
X29083108Y-49838956D01*
X29083107Y-49838951D01*
X29080907Y-49828468D01*
X29076973Y-49818506D01*
X29076971Y-49818500D01*
X29000160Y-49624005D01*
X28996224Y-49614038D01*
X28962366Y-49558241D01*
X28882178Y-49426096D01*
X28882177Y-49426094D01*
X28876623Y-49416942D01*
X28725523Y-49242814D01*
X28609845Y-49147964D01*
X28547187Y-49071683D01*
X28518490Y-48977230D01*
X28528123Y-48878986D01*
X28574619Y-48791906D01*
X28612913Y-48756552D01*
X28611765Y-48755125D01*
X28636765Y-48735024D01*
X28788002Y-48590750D01*
X28802157Y-48574750D01*
X28926928Y-48407053D01*
X28938184Y-48388898D01*
X29032922Y-48202563D01*
X29040951Y-48182792D01*
X29102939Y-47983154D01*
X29107524Y-47962303D01*
X29107967Y-47958963D01*
X29106599Y-47937814D01*
X29096156Y-47934259D01*
X25765611Y-47934259D01*
X25744827Y-47938393D01*
X25743285Y-47946145D01*
X25743382Y-47947073D01*
X25767374Y-48061422D01*
X25773508Y-48081866D01*
X25850291Y-48276297D01*
X25859783Y-48295415D01*
X25968223Y-48474119D01*
X25980807Y-48491375D01*
X26117804Y-48649251D01*
X26133118Y-48664143D01*
X26240185Y-48751933D01*
X26302843Y-48828214D01*
X26331540Y-48922666D01*
X26321907Y-49020911D01*
X26275410Y-49107990D01*
X26236559Y-49143310D01*
X26237919Y-49145002D01*
X26229564Y-49151720D01*
X26220681Y-49157700D01*
X26053865Y-49316835D01*
X25916246Y-49501801D01*
X25877150Y-49578697D01*
X25826741Y-49677845D01*
X25811760Y-49707310D01*
X25808583Y-49717543D01*
X25749917Y-49906477D01*
X25743393Y-49927486D01*
X25741986Y-49938104D01*
X25717062Y-50126158D01*
X25713102Y-50156033D01*
X25721751Y-50386417D01*
X25723952Y-50396907D01*
X25761399Y-50575379D01*
X25769093Y-50612050D01*
X25773027Y-50622012D01*
X25773029Y-50622018D01*
X25816941Y-50733208D01*
X25853776Y-50826480D01*
X25859332Y-50835636D01*
X25859333Y-50835638D01*
X25921111Y-50937445D01*
X25973377Y-51023576D01*
X26124477Y-51197704D01*
X26132758Y-51204494D01*
X26132760Y-51204496D01*
X26239756Y-51292227D01*
X26302414Y-51368508D01*
X26331111Y-51462961D01*
X26321478Y-51561206D01*
X26274982Y-51648285D01*
X26237870Y-51685042D01*
X26229568Y-51691717D01*
X26220681Y-51697700D01*
X26053865Y-51856835D01*
X25916246Y-52041801D01*
X25811760Y-52247310D01*
X25743393Y-52467486D01*
X25713102Y-52696033D01*
X11352076Y-52696033D01*
X11348249Y-52594101D01*
X11338474Y-52547511D01*
X11303108Y-52378956D01*
X11303107Y-52378951D01*
X11300907Y-52368468D01*
X11296973Y-52358506D01*
X11296971Y-52358500D01*
X11220160Y-52164005D01*
X11216224Y-52154038D01*
X11153915Y-52051355D01*
X11102178Y-51966096D01*
X11102177Y-51966094D01*
X11096623Y-51956942D01*
X10945523Y-51782814D01*
X10830244Y-51688291D01*
X10767586Y-51612010D01*
X10738889Y-51517557D01*
X10748522Y-51419312D01*
X10795018Y-51332233D01*
X10832130Y-51295476D01*
X10840432Y-51288801D01*
X10849319Y-51282818D01*
X11016135Y-51123683D01*
X11153754Y-50938717D01*
X11258240Y-50733208D01*
X11326607Y-50513032D01*
X11347977Y-50351791D01*
X11355491Y-50295102D01*
X11355491Y-50295100D01*
X11356898Y-50284485D01*
X11348249Y-50054101D01*
X11315029Y-49895774D01*
X11303108Y-49838956D01*
X11303107Y-49838951D01*
X11300907Y-49828468D01*
X11296973Y-49818506D01*
X11296971Y-49818500D01*
X11220160Y-49624005D01*
X11216224Y-49614038D01*
X11182366Y-49558241D01*
X11102178Y-49426096D01*
X11102177Y-49426094D01*
X11096623Y-49416942D01*
X10945523Y-49242814D01*
X10829845Y-49147964D01*
X10767187Y-49071683D01*
X10738490Y-48977230D01*
X10748123Y-48878986D01*
X10794619Y-48791906D01*
X10832913Y-48756552D01*
X10831765Y-48755125D01*
X10856765Y-48735024D01*
X11008002Y-48590750D01*
X11022157Y-48574750D01*
X11146928Y-48407053D01*
X11158184Y-48388898D01*
X11252922Y-48202563D01*
X11260951Y-48182792D01*
X11322939Y-47983154D01*
X11327524Y-47962303D01*
X11327967Y-47958963D01*
X11326599Y-47937814D01*
X11316156Y-47934259D01*
X7985611Y-47934259D01*
X7964827Y-47938393D01*
X7963285Y-47946145D01*
X7963382Y-47947073D01*
X7987374Y-48061422D01*
X7993508Y-48081866D01*
X8070291Y-48276297D01*
X8079783Y-48295415D01*
X8188223Y-48474119D01*
X8200807Y-48491375D01*
X8337804Y-48649251D01*
X8353118Y-48664143D01*
X8460185Y-48751933D01*
X8522843Y-48828214D01*
X8551540Y-48922666D01*
X8541907Y-49020911D01*
X8495410Y-49107990D01*
X8456559Y-49143310D01*
X8457919Y-49145002D01*
X8449564Y-49151720D01*
X8440681Y-49157700D01*
X8273865Y-49316835D01*
X8136246Y-49501801D01*
X8097150Y-49578697D01*
X8046741Y-49677845D01*
X8031760Y-49707310D01*
X8028583Y-49717543D01*
X7969917Y-49906477D01*
X7963393Y-49927486D01*
X7961986Y-49938104D01*
X7937062Y-50126158D01*
X7933102Y-50156033D01*
X7941751Y-50386417D01*
X7943952Y-50396907D01*
X7981399Y-50575379D01*
X7989093Y-50612050D01*
X7993027Y-50622012D01*
X7993029Y-50622018D01*
X8036941Y-50733208D01*
X8073776Y-50826480D01*
X8079332Y-50835636D01*
X8079333Y-50835638D01*
X8141111Y-50937445D01*
X8193377Y-51023576D01*
X8344477Y-51197704D01*
X8352758Y-51204494D01*
X8352760Y-51204496D01*
X8459756Y-51292227D01*
X8522414Y-51368508D01*
X8551111Y-51462961D01*
X8541478Y-51561206D01*
X8494982Y-51648285D01*
X8457870Y-51685042D01*
X8449568Y-51691717D01*
X8440681Y-51697700D01*
X8273865Y-51856835D01*
X8136246Y-52041801D01*
X8031760Y-52247310D01*
X7963393Y-52467486D01*
X7933102Y-52696033D01*
X508500Y-52696033D01*
X508500Y-49895774D01*
X1788102Y-49895774D01*
X1796751Y-50126158D01*
X1798952Y-50136648D01*
X1832199Y-50295102D01*
X1844093Y-50351791D01*
X1848027Y-50361753D01*
X1848029Y-50361759D01*
X1891941Y-50472949D01*
X1928776Y-50566221D01*
X1934332Y-50575377D01*
X1934333Y-50575379D01*
X2042822Y-50754163D01*
X2048377Y-50763317D01*
X2055397Y-50771407D01*
X2055400Y-50771411D01*
X2102860Y-50826105D01*
X2151769Y-50911853D01*
X2164141Y-51009790D01*
X2138092Y-51105007D01*
X2077588Y-51183007D01*
X2053493Y-51199768D01*
X2053538Y-51199828D01*
X1951521Y-51276285D01*
X1926285Y-51301521D01*
X1860637Y-51389115D01*
X1843501Y-51420415D01*
X1804318Y-51524936D01*
X1797034Y-51555566D01*
X1792740Y-51595095D01*
X1792000Y-51608764D01*
X1792000Y-52221082D01*
X1796134Y-52241866D01*
X1816918Y-52246000D01*
X5183081Y-52246000D01*
X5203865Y-52241866D01*
X5207999Y-52221082D01*
X5207999Y-51608755D01*
X5207260Y-51595112D01*
X5202965Y-51555564D01*
X5195682Y-51524936D01*
X5156499Y-51420415D01*
X5139363Y-51389115D01*
X5073715Y-51301521D01*
X5048479Y-51276285D01*
X4946462Y-51199828D01*
X4948080Y-51197670D01*
X4892933Y-51151476D01*
X4847277Y-51063953D01*
X4838589Y-50965621D01*
X4868194Y-50871449D01*
X4887120Y-50841939D01*
X5008754Y-50678458D01*
X5092861Y-50513032D01*
X5108384Y-50482501D01*
X5108386Y-50482496D01*
X5113240Y-50472949D01*
X5171760Y-50284485D01*
X5178431Y-50263002D01*
X5178432Y-50263000D01*
X5181607Y-50252773D01*
X5206519Y-50064809D01*
X5210491Y-50034843D01*
X5210491Y-50034841D01*
X5211898Y-50024226D01*
X5203249Y-49793842D01*
X5165523Y-49614038D01*
X5158108Y-49578697D01*
X5158107Y-49578692D01*
X5155907Y-49568209D01*
X5151973Y-49558247D01*
X5151971Y-49558241D01*
X5075160Y-49363746D01*
X5071224Y-49353779D01*
X5008915Y-49251096D01*
X4957178Y-49165837D01*
X4957177Y-49165835D01*
X4951623Y-49156683D01*
X4800523Y-48982555D01*
X4622245Y-48836376D01*
X4495603Y-48764287D01*
X4431199Y-48727626D01*
X4431196Y-48727625D01*
X4421886Y-48722325D01*
X4375176Y-48705370D01*
X4290740Y-48654235D01*
X4232299Y-48574678D01*
X4208751Y-48478812D01*
X4208500Y-48467553D01*
X4208500Y-48223012D01*
X4227758Y-48126193D01*
X4282602Y-48044114D01*
X4328368Y-48007873D01*
X4411849Y-47956213D01*
X4411851Y-47956211D01*
X4424348Y-47948478D01*
X4434994Y-47937814D01*
X4538920Y-47833706D01*
X4549305Y-47823303D01*
X4642115Y-47672738D01*
X4697797Y-47504861D01*
X4708500Y-47400400D01*
X4708500Y-46599600D01*
X4697526Y-46493834D01*
X4658859Y-46377934D01*
X4646201Y-46339994D01*
X4646200Y-46339992D01*
X4641550Y-46326054D01*
X4585137Y-46234892D01*
X4550566Y-46142427D01*
X4554011Y-46043772D01*
X4594947Y-45953944D01*
X4667143Y-45886620D01*
X4759608Y-45852049D01*
X4800276Y-45848759D01*
X7996724Y-45848759D01*
X8093543Y-45868017D01*
X8175622Y-45922861D01*
X8193359Y-45943592D01*
X8193377Y-45943576D01*
X8344477Y-46117704D01*
X8431685Y-46189210D01*
X8460155Y-46212554D01*
X8522813Y-46288835D01*
X8551510Y-46383288D01*
X8541877Y-46481532D01*
X8495381Y-46568612D01*
X8457087Y-46603966D01*
X8458235Y-46605393D01*
X8433235Y-46625494D01*
X8281998Y-46769768D01*
X8267843Y-46785768D01*
X8143072Y-46953465D01*
X8131816Y-46971620D01*
X8037078Y-47157955D01*
X8029049Y-47177726D01*
X7967061Y-47377364D01*
X7962476Y-47398215D01*
X7962033Y-47401555D01*
X7963401Y-47422704D01*
X7973844Y-47426259D01*
X11304389Y-47426259D01*
X11325173Y-47422125D01*
X11326715Y-47414373D01*
X11326618Y-47413445D01*
X11302626Y-47299096D01*
X11296492Y-47278652D01*
X11219709Y-47084221D01*
X11210217Y-47065103D01*
X11101777Y-46886399D01*
X11089193Y-46869143D01*
X10952196Y-46711267D01*
X10936882Y-46696375D01*
X10829815Y-46608585D01*
X10767157Y-46532304D01*
X10738460Y-46437852D01*
X10748093Y-46339607D01*
X10794590Y-46252528D01*
X10833441Y-46217208D01*
X10832081Y-46215516D01*
X10840436Y-46208798D01*
X10849319Y-46202818D01*
X11016135Y-46043683D01*
X11153754Y-45858717D01*
X11241343Y-45686442D01*
X11253384Y-45662760D01*
X11253386Y-45662755D01*
X11258240Y-45653208D01*
X11326607Y-45433032D01*
X11356898Y-45204485D01*
X11352076Y-45076033D01*
X25713102Y-45076033D01*
X25721751Y-45306417D01*
X25723952Y-45316907D01*
X25760773Y-45492396D01*
X25769093Y-45532050D01*
X25773027Y-45542012D01*
X25773029Y-45542018D01*
X25820713Y-45662760D01*
X25853776Y-45746480D01*
X25859332Y-45755636D01*
X25859333Y-45755638D01*
X25938815Y-45886620D01*
X25973377Y-45943576D01*
X26124477Y-46117704D01*
X26211685Y-46189210D01*
X26240155Y-46212554D01*
X26302813Y-46288835D01*
X26331510Y-46383288D01*
X26321877Y-46481532D01*
X26275381Y-46568612D01*
X26237087Y-46603966D01*
X26238235Y-46605393D01*
X26213235Y-46625494D01*
X26061998Y-46769768D01*
X26047843Y-46785768D01*
X25923072Y-46953465D01*
X25911816Y-46971620D01*
X25817078Y-47157955D01*
X25809049Y-47177726D01*
X25747061Y-47377364D01*
X25742476Y-47398215D01*
X25742033Y-47401555D01*
X25743401Y-47422704D01*
X25753844Y-47426259D01*
X29084389Y-47426259D01*
X29105173Y-47422125D01*
X29106715Y-47414373D01*
X29106618Y-47413445D01*
X29082626Y-47299096D01*
X29076492Y-47278652D01*
X28999709Y-47084221D01*
X28990217Y-47065103D01*
X28881777Y-46886399D01*
X28869193Y-46869143D01*
X28732196Y-46711267D01*
X28716882Y-46696375D01*
X28609815Y-46608585D01*
X28547157Y-46532304D01*
X28518460Y-46437852D01*
X28528093Y-46339607D01*
X28574590Y-46252528D01*
X28613441Y-46217208D01*
X28612081Y-46215516D01*
X28620436Y-46208798D01*
X28629319Y-46202818D01*
X28796135Y-46043683D01*
X28933754Y-45858717D01*
X29021343Y-45686442D01*
X29033384Y-45662760D01*
X29033386Y-45662755D01*
X29038240Y-45653208D01*
X29106607Y-45433032D01*
X29136898Y-45204485D01*
X29128249Y-44974101D01*
X29099537Y-44837257D01*
X29083108Y-44758956D01*
X29083107Y-44758951D01*
X29080907Y-44748468D01*
X29076973Y-44738506D01*
X29076971Y-44738500D01*
X29000160Y-44544005D01*
X28996224Y-44534038D01*
X28983624Y-44513273D01*
X28882178Y-44346096D01*
X28882177Y-44346094D01*
X28876623Y-44336942D01*
X28725523Y-44162814D01*
X28610244Y-44068291D01*
X28547586Y-43992010D01*
X28518889Y-43897557D01*
X28528522Y-43799312D01*
X28575018Y-43712233D01*
X28612130Y-43675476D01*
X28620432Y-43668801D01*
X28629319Y-43662818D01*
X28796135Y-43503683D01*
X28933754Y-43318717D01*
X29038240Y-43113208D01*
X29106607Y-42893032D01*
X29108180Y-42893520D01*
X29142541Y-42815056D01*
X29213730Y-42746668D01*
X29305670Y-42710728D01*
X29404366Y-42712708D01*
X29494792Y-42752307D01*
X29528939Y-42780909D01*
X31045501Y-44297471D01*
X31057254Y-44310052D01*
X31092439Y-44350385D01*
X31142006Y-44385221D01*
X31152600Y-44393088D01*
X31200282Y-44430477D01*
X31214180Y-44436752D01*
X31215099Y-44437309D01*
X31217138Y-44438641D01*
X31219314Y-44439714D01*
X31220268Y-44440226D01*
X31232739Y-44448990D01*
X31246940Y-44454527D01*
X31246944Y-44454529D01*
X31289182Y-44470997D01*
X31301381Y-44476125D01*
X31356573Y-44501045D01*
X31371567Y-44503824D01*
X31372590Y-44504145D01*
X31374884Y-44504950D01*
X31377251Y-44505473D01*
X31378299Y-44505742D01*
X31392509Y-44511282D01*
X31407623Y-44513272D01*
X31407628Y-44513273D01*
X31444934Y-44518184D01*
X31452569Y-44519189D01*
X31465631Y-44521258D01*
X31500317Y-44527686D01*
X31510187Y-44529516D01*
X31510188Y-44529516D01*
X31525187Y-44532296D01*
X31583773Y-44528918D01*
X31598302Y-44528500D01*
X31876724Y-44528500D01*
X31973543Y-44547758D01*
X32055622Y-44602602D01*
X32073359Y-44623333D01*
X32073377Y-44623317D01*
X32224477Y-44797445D01*
X32402755Y-44943624D01*
X32603114Y-45057675D01*
X32613185Y-45061331D01*
X32613186Y-45061331D01*
X32809749Y-45132680D01*
X32809753Y-45132681D01*
X32819825Y-45136337D01*
X33046692Y-45177361D01*
X33055025Y-45177754D01*
X33067849Y-45178359D01*
X33067859Y-45178359D01*
X33070844Y-45178500D01*
X33932890Y-45178500D01*
X33938216Y-45178048D01*
X33938218Y-45178048D01*
X34094045Y-45164826D01*
X34094047Y-45164826D01*
X34104720Y-45163920D01*
X34115086Y-45161230D01*
X34115089Y-45161229D01*
X34317500Y-45108693D01*
X34317499Y-45108693D01*
X34327872Y-45106001D01*
X34337638Y-45101602D01*
X34337643Y-45101600D01*
X34528305Y-45015713D01*
X34538075Y-45011312D01*
X34729319Y-44882559D01*
X34754955Y-44858104D01*
X34888386Y-44730816D01*
X34896135Y-44723424D01*
X35033754Y-44538458D01*
X35125678Y-44357657D01*
X35133384Y-44342501D01*
X35133386Y-44342496D01*
X35138240Y-44332949D01*
X35189988Y-44166294D01*
X35203431Y-44123002D01*
X35203432Y-44123000D01*
X35206607Y-44112773D01*
X35234465Y-43902584D01*
X35235491Y-43894843D01*
X35235491Y-43894841D01*
X35236898Y-43884226D01*
X35228249Y-43653842D01*
X35180907Y-43428209D01*
X35176973Y-43418247D01*
X35176971Y-43418241D01*
X35100160Y-43223746D01*
X35096224Y-43213779D01*
X35034160Y-43111500D01*
X34982178Y-43025837D01*
X34982177Y-43025835D01*
X34976623Y-43016683D01*
X34825523Y-42842555D01*
X34750341Y-42780909D01*
X34710244Y-42748032D01*
X34647586Y-42671751D01*
X34618889Y-42577298D01*
X34628522Y-42479053D01*
X34675018Y-42391974D01*
X34712130Y-42355217D01*
X34720432Y-42348542D01*
X34729319Y-42342559D01*
X34896135Y-42183424D01*
X35033754Y-41998458D01*
X35138240Y-41792949D01*
X35206607Y-41572773D01*
X35236898Y-41344226D01*
X35228249Y-41113842D01*
X35180907Y-40888209D01*
X35176973Y-40878247D01*
X35176971Y-40878241D01*
X35100160Y-40683746D01*
X35096224Y-40673779D01*
X35028987Y-40562975D01*
X34982178Y-40485837D01*
X34982177Y-40485835D01*
X34976623Y-40476683D01*
X34825523Y-40302555D01*
X34709845Y-40207705D01*
X34647187Y-40131424D01*
X34618490Y-40036971D01*
X34628123Y-39938727D01*
X34674619Y-39851647D01*
X34712913Y-39816293D01*
X34711765Y-39814866D01*
X34736765Y-39794765D01*
X34888002Y-39650491D01*
X34902157Y-39634491D01*
X35026928Y-39466794D01*
X35038184Y-39448639D01*
X35132922Y-39262304D01*
X35140951Y-39242533D01*
X35202939Y-39042895D01*
X35207524Y-39022044D01*
X35207967Y-39018704D01*
X35206599Y-38997555D01*
X35196156Y-38994000D01*
X31865611Y-38994000D01*
X31842589Y-38998579D01*
X31810193Y-39020226D01*
X31718992Y-39058004D01*
X31620277Y-39058005D01*
X31529075Y-39020229D01*
X31490734Y-38988764D01*
X29544758Y-37042788D01*
X29533005Y-37030207D01*
X29521957Y-37017543D01*
X29497820Y-36989874D01*
X29448254Y-36955038D01*
X29437639Y-36947155D01*
X29401978Y-36919193D01*
X29389977Y-36909783D01*
X29376081Y-36903509D01*
X29375176Y-36902961D01*
X29373130Y-36901625D01*
X29370936Y-36900543D01*
X29370003Y-36900043D01*
X29357520Y-36891269D01*
X29343303Y-36885726D01*
X29301084Y-36869265D01*
X29288874Y-36864133D01*
X29233686Y-36839214D01*
X29218692Y-36836435D01*
X29217669Y-36836114D01*
X29215374Y-36835308D01*
X29213009Y-36834786D01*
X29211959Y-36834516D01*
X29197750Y-36828977D01*
X29137683Y-36821069D01*
X29124621Y-36819000D01*
X29085554Y-36811759D01*
X29080073Y-36810743D01*
X29080072Y-36810743D01*
X29065073Y-36807963D01*
X29053640Y-36808622D01*
X28960487Y-36783923D01*
X28882013Y-36724034D01*
X28877558Y-36718483D01*
X28876623Y-36716942D01*
X28872607Y-36712314D01*
X28872599Y-36712304D01*
X28739359Y-36558759D01*
X28725523Y-36542814D01*
X28609845Y-36447964D01*
X28547187Y-36371683D01*
X28518490Y-36277230D01*
X28528123Y-36178986D01*
X28574619Y-36091906D01*
X28612913Y-36056552D01*
X28611765Y-36055125D01*
X28636765Y-36035024D01*
X28788002Y-35890750D01*
X28802157Y-35874750D01*
X28926928Y-35707053D01*
X28938184Y-35688898D01*
X29032922Y-35502563D01*
X29040951Y-35482792D01*
X29102939Y-35283154D01*
X29107524Y-35262303D01*
X29107967Y-35258963D01*
X29106599Y-35237814D01*
X29096156Y-35234259D01*
X25765611Y-35234259D01*
X25744827Y-35238393D01*
X25743285Y-35246145D01*
X25743382Y-35247073D01*
X25767374Y-35361422D01*
X25773508Y-35381866D01*
X25850291Y-35576297D01*
X25859783Y-35595415D01*
X25968223Y-35774119D01*
X25980807Y-35791375D01*
X26117804Y-35949251D01*
X26133118Y-35964143D01*
X26240185Y-36051933D01*
X26302843Y-36128214D01*
X26331540Y-36222666D01*
X26321907Y-36320911D01*
X26275410Y-36407990D01*
X26236559Y-36443310D01*
X26237919Y-36445002D01*
X26229564Y-36451720D01*
X26220681Y-36457700D01*
X26212933Y-36465091D01*
X26212932Y-36465092D01*
X26203893Y-36473715D01*
X26053865Y-36616835D01*
X25916246Y-36801801D01*
X25873144Y-36886576D01*
X25820625Y-36989874D01*
X25811760Y-37007310D01*
X25743393Y-37227486D01*
X25713102Y-37456033D01*
X25721751Y-37686417D01*
X25723952Y-37696907D01*
X25732255Y-37736477D01*
X25769093Y-37912050D01*
X25773027Y-37922012D01*
X25773029Y-37922018D01*
X25816211Y-38031361D01*
X25853776Y-38126480D01*
X25859332Y-38135636D01*
X25859333Y-38135638D01*
X25952711Y-38289520D01*
X25973377Y-38323576D01*
X26124477Y-38497704D01*
X26132758Y-38504494D01*
X26132760Y-38504496D01*
X26239756Y-38592227D01*
X26302414Y-38668508D01*
X26331111Y-38762961D01*
X26321478Y-38861206D01*
X26274982Y-38948285D01*
X26237870Y-38985042D01*
X26229568Y-38991717D01*
X26220681Y-38997700D01*
X26053865Y-39156835D01*
X25916246Y-39341801D01*
X25811760Y-39547310D01*
X25743393Y-39767486D01*
X25713102Y-39996033D01*
X25721751Y-40226417D01*
X25723952Y-40236907D01*
X25729610Y-40263871D01*
X25769093Y-40452050D01*
X25773027Y-40462012D01*
X25773029Y-40462018D01*
X25816941Y-40573208D01*
X25853776Y-40666480D01*
X25859332Y-40675636D01*
X25859333Y-40675638D01*
X25921883Y-40778717D01*
X25973377Y-40863576D01*
X26124477Y-41037704D01*
X26132758Y-41044494D01*
X26132760Y-41044496D01*
X26239756Y-41132227D01*
X26302414Y-41208508D01*
X26331111Y-41302961D01*
X26321478Y-41401206D01*
X26274982Y-41488285D01*
X26237870Y-41525042D01*
X26229568Y-41531717D01*
X26220681Y-41537700D01*
X26053865Y-41696835D01*
X25916246Y-41881801D01*
X25811760Y-42087310D01*
X25743393Y-42307486D01*
X25713102Y-42536033D01*
X25721751Y-42766417D01*
X25723952Y-42776907D01*
X25762349Y-42959906D01*
X25769093Y-42992050D01*
X25773027Y-43002012D01*
X25773029Y-43002018D01*
X25816266Y-43111500D01*
X25853776Y-43206480D01*
X25859332Y-43215636D01*
X25859333Y-43215638D01*
X25921883Y-43318717D01*
X25973377Y-43403576D01*
X26124477Y-43577704D01*
X26132758Y-43584494D01*
X26132760Y-43584496D01*
X26239756Y-43672227D01*
X26302414Y-43748508D01*
X26331111Y-43842961D01*
X26321478Y-43941206D01*
X26274982Y-44028285D01*
X26237870Y-44065042D01*
X26229568Y-44071717D01*
X26220681Y-44077700D01*
X26053865Y-44236835D01*
X25916246Y-44421801D01*
X25888625Y-44476128D01*
X25822566Y-44606057D01*
X25811760Y-44627310D01*
X25743393Y-44847486D01*
X25741986Y-44858104D01*
X25715051Y-45061331D01*
X25713102Y-45076033D01*
X11352076Y-45076033D01*
X11348249Y-44974101D01*
X11319537Y-44837257D01*
X11303108Y-44758956D01*
X11303107Y-44758951D01*
X11300907Y-44748468D01*
X11296973Y-44738506D01*
X11296971Y-44738500D01*
X11220160Y-44544005D01*
X11216224Y-44534038D01*
X11203624Y-44513273D01*
X11102178Y-44346096D01*
X11102177Y-44346094D01*
X11096623Y-44336942D01*
X10945523Y-44162814D01*
X10830244Y-44068291D01*
X10767586Y-43992010D01*
X10738889Y-43897557D01*
X10748522Y-43799312D01*
X10795018Y-43712233D01*
X10832130Y-43675476D01*
X10840432Y-43668801D01*
X10849319Y-43662818D01*
X11016135Y-43503683D01*
X11153754Y-43318717D01*
X11258240Y-43113208D01*
X11316628Y-42925169D01*
X11323431Y-42903261D01*
X11323432Y-42903259D01*
X11326607Y-42893032D01*
X11356898Y-42664485D01*
X11348249Y-42434101D01*
X11329042Y-42342559D01*
X11303108Y-42218956D01*
X11303107Y-42218951D01*
X11300907Y-42208468D01*
X11296973Y-42198506D01*
X11296971Y-42198500D01*
X11220160Y-42004005D01*
X11216224Y-41994038D01*
X11153915Y-41891355D01*
X11102178Y-41806096D01*
X11102177Y-41806094D01*
X11096623Y-41796942D01*
X10945523Y-41622814D01*
X10830244Y-41528291D01*
X10767586Y-41452010D01*
X10738889Y-41357557D01*
X10748522Y-41259312D01*
X10795018Y-41172233D01*
X10832130Y-41135476D01*
X10840432Y-41128801D01*
X10849319Y-41122818D01*
X11016135Y-40963683D01*
X11153754Y-40778717D01*
X11258240Y-40573208D01*
X11326607Y-40353032D01*
X11356898Y-40124485D01*
X11348249Y-39894101D01*
X11339341Y-39851647D01*
X11303108Y-39678956D01*
X11303107Y-39678951D01*
X11300907Y-39668468D01*
X11296973Y-39658506D01*
X11296971Y-39658500D01*
X11238569Y-39510619D01*
X11216224Y-39454038D01*
X11153915Y-39351355D01*
X11102178Y-39266096D01*
X11102177Y-39266094D01*
X11096623Y-39256942D01*
X10945523Y-39082814D01*
X10915267Y-39058005D01*
X10830244Y-38988291D01*
X10767586Y-38912010D01*
X10738889Y-38817557D01*
X10748522Y-38719312D01*
X10795018Y-38632233D01*
X10832130Y-38595476D01*
X10840432Y-38588801D01*
X10849319Y-38582818D01*
X11016135Y-38423683D01*
X11153754Y-38238717D01*
X11258240Y-38033208D01*
X11326607Y-37813032D01*
X11356898Y-37584485D01*
X11348249Y-37354101D01*
X11332665Y-37279826D01*
X11303108Y-37138956D01*
X11303107Y-37138951D01*
X11300907Y-37128468D01*
X11296973Y-37118506D01*
X11296971Y-37118500D01*
X11220160Y-36924005D01*
X11216224Y-36914038D01*
X11209503Y-36902961D01*
X11102178Y-36726096D01*
X11102177Y-36726094D01*
X11096623Y-36716942D01*
X10945523Y-36542814D01*
X10829845Y-36447964D01*
X10767187Y-36371683D01*
X10738490Y-36277230D01*
X10748123Y-36178986D01*
X10794619Y-36091906D01*
X10832913Y-36056552D01*
X10831765Y-36055125D01*
X10856765Y-36035024D01*
X11008002Y-35890750D01*
X11022157Y-35874750D01*
X11146928Y-35707053D01*
X11158184Y-35688898D01*
X11252922Y-35502563D01*
X11260951Y-35482792D01*
X11322939Y-35283154D01*
X11327524Y-35262303D01*
X11327967Y-35258963D01*
X11326599Y-35237814D01*
X11316156Y-35234259D01*
X7985611Y-35234259D01*
X7964827Y-35238393D01*
X7963285Y-35246145D01*
X7963382Y-35247073D01*
X7987374Y-35361422D01*
X7993508Y-35381866D01*
X8070291Y-35576297D01*
X8079783Y-35595415D01*
X8188223Y-35774119D01*
X8200807Y-35791375D01*
X8337804Y-35949251D01*
X8353118Y-35964143D01*
X8460185Y-36051933D01*
X8522843Y-36128214D01*
X8551540Y-36222666D01*
X8541907Y-36320911D01*
X8495410Y-36407990D01*
X8456559Y-36443310D01*
X8457919Y-36445002D01*
X8449564Y-36451720D01*
X8440681Y-36457700D01*
X8432933Y-36465091D01*
X8432932Y-36465092D01*
X8423893Y-36473715D01*
X8273865Y-36616835D01*
X8267471Y-36625429D01*
X8204711Y-36709781D01*
X8131466Y-36775963D01*
X8038470Y-36809077D01*
X8001730Y-36811759D01*
X5332232Y-36811759D01*
X5235413Y-36792501D01*
X5153334Y-36737657D01*
X5098490Y-36655578D01*
X5079232Y-36558759D01*
X5098490Y-36461940D01*
X5129779Y-36407030D01*
X5164363Y-36360885D01*
X5181499Y-36329585D01*
X5220682Y-36225064D01*
X5227966Y-36194434D01*
X5232260Y-36154905D01*
X5233000Y-36141236D01*
X5233000Y-35528918D01*
X5228866Y-35508134D01*
X5208082Y-35504000D01*
X1841919Y-35504000D01*
X1821135Y-35508134D01*
X1817001Y-35528918D01*
X1817001Y-36141245D01*
X1817740Y-36154888D01*
X1822035Y-36194436D01*
X1829318Y-36225064D01*
X1868501Y-36329585D01*
X1885637Y-36360885D01*
X1951285Y-36448479D01*
X1976521Y-36473715D01*
X2078538Y-36550172D01*
X2076920Y-36552330D01*
X2132067Y-36598524D01*
X2177723Y-36686047D01*
X2186411Y-36784379D01*
X2156806Y-36878551D01*
X2137880Y-36908061D01*
X2016246Y-37071542D01*
X1981971Y-37138956D01*
X1931562Y-37238104D01*
X1911760Y-37277051D01*
X1887835Y-37354101D01*
X1848133Y-37481963D01*
X1843393Y-37497227D01*
X1813102Y-37725774D01*
X1821751Y-37956158D01*
X1823952Y-37966648D01*
X1861156Y-38143962D01*
X1869093Y-38181791D01*
X1873027Y-38191753D01*
X1873029Y-38191759D01*
X1895247Y-38248017D01*
X1953776Y-38396221D01*
X1959332Y-38405377D01*
X1959333Y-38405379D01*
X2019479Y-38504496D01*
X2073377Y-38593317D01*
X2224477Y-38767445D01*
X2402755Y-38913624D01*
X2412066Y-38918924D01*
X2593222Y-39022044D01*
X2603114Y-39027675D01*
X2613185Y-39031331D01*
X2613186Y-39031331D01*
X2809749Y-39102680D01*
X2809753Y-39102681D01*
X2819825Y-39106337D01*
X3046692Y-39147361D01*
X3055025Y-39147754D01*
X3067849Y-39148359D01*
X3067859Y-39148359D01*
X3070844Y-39148500D01*
X3932890Y-39148500D01*
X3938216Y-39148048D01*
X3938218Y-39148048D01*
X4094045Y-39134826D01*
X4094047Y-39134826D01*
X4104720Y-39133920D01*
X4115086Y-39131230D01*
X4115089Y-39131229D01*
X4317500Y-39078693D01*
X4317499Y-39078693D01*
X4327872Y-39076001D01*
X4337638Y-39071602D01*
X4337643Y-39071600D01*
X4528305Y-38985713D01*
X4538075Y-38981312D01*
X4729319Y-38852559D01*
X4766011Y-38817557D01*
X4888386Y-38700816D01*
X4896135Y-38693424D01*
X5033754Y-38508458D01*
X5105626Y-38367096D01*
X5166673Y-38289520D01*
X5252759Y-38241210D01*
X5331151Y-38228759D01*
X7996724Y-38228759D01*
X8093543Y-38248017D01*
X8175622Y-38302861D01*
X8193359Y-38323592D01*
X8193377Y-38323576D01*
X8344477Y-38497704D01*
X8352758Y-38504494D01*
X8352760Y-38504496D01*
X8459756Y-38592227D01*
X8522414Y-38668508D01*
X8551111Y-38762961D01*
X8541478Y-38861206D01*
X8494982Y-38948285D01*
X8457870Y-38985042D01*
X8449568Y-38991717D01*
X8440681Y-38997700D01*
X8273865Y-39156835D01*
X8136246Y-39341801D01*
X8031760Y-39547310D01*
X7963393Y-39767486D01*
X7933102Y-39996033D01*
X7941751Y-40226417D01*
X7943952Y-40236907D01*
X7949610Y-40263871D01*
X7989093Y-40452050D01*
X7993027Y-40462012D01*
X7993029Y-40462018D01*
X8036941Y-40573208D01*
X8073776Y-40666480D01*
X8079332Y-40675636D01*
X8079333Y-40675638D01*
X8141883Y-40778717D01*
X8193377Y-40863576D01*
X8344477Y-41037704D01*
X8352758Y-41044494D01*
X8352760Y-41044496D01*
X8459756Y-41132227D01*
X8522414Y-41208508D01*
X8551111Y-41302961D01*
X8541478Y-41401206D01*
X8494982Y-41488285D01*
X8457870Y-41525042D01*
X8449568Y-41531717D01*
X8440681Y-41537700D01*
X8273865Y-41696835D01*
X8136246Y-41881801D01*
X8031760Y-42087310D01*
X7963393Y-42307486D01*
X7933102Y-42536033D01*
X7941751Y-42766417D01*
X7943952Y-42776907D01*
X7982349Y-42959906D01*
X7989093Y-42992050D01*
X7993027Y-43002012D01*
X7993029Y-43002018D01*
X8036266Y-43111500D01*
X8073776Y-43206480D01*
X8079332Y-43215636D01*
X8079333Y-43215638D01*
X8141883Y-43318717D01*
X8193377Y-43403576D01*
X8344477Y-43577704D01*
X8352758Y-43584494D01*
X8352760Y-43584496D01*
X8459756Y-43672227D01*
X8522414Y-43748508D01*
X8551111Y-43842961D01*
X8541478Y-43941206D01*
X8494982Y-44028285D01*
X8457870Y-44065042D01*
X8449568Y-44071717D01*
X8440681Y-44077700D01*
X8273865Y-44236835D01*
X8267471Y-44245429D01*
X8204711Y-44329781D01*
X8131466Y-44395963D01*
X8038470Y-44429077D01*
X8001730Y-44431759D01*
X4847925Y-44431759D01*
X4751106Y-44412501D01*
X4669027Y-44357657D01*
X4632786Y-44311891D01*
X4556213Y-44188151D01*
X4556211Y-44188149D01*
X4548478Y-44175652D01*
X4423303Y-44050695D01*
X4272738Y-43957885D01*
X4131051Y-43910890D01*
X4117973Y-43906552D01*
X4104861Y-43902203D01*
X4000400Y-43891500D01*
X2999600Y-43891500D01*
X2993095Y-43892175D01*
X2993094Y-43892175D01*
X2907604Y-43901045D01*
X2907602Y-43901046D01*
X2893834Y-43902474D01*
X2880702Y-43906855D01*
X2880703Y-43906855D01*
X2739994Y-43953799D01*
X2739992Y-43953800D01*
X2726054Y-43958450D01*
X2713558Y-43966183D01*
X2632029Y-44016635D01*
X2575652Y-44051522D01*
X2565270Y-44061923D01*
X2565269Y-44061923D01*
X2558912Y-44068291D01*
X2450695Y-44176697D01*
X2442982Y-44189210D01*
X2376249Y-44297471D01*
X2357885Y-44327262D01*
X2302203Y-44495139D01*
X2291500Y-44599600D01*
X2291500Y-45400400D01*
X2302474Y-45506166D01*
X2358450Y-45673946D01*
X2451522Y-45824348D01*
X2461927Y-45834735D01*
X2468329Y-45842812D01*
X2513375Y-45930651D01*
X2521378Y-46029042D01*
X2491120Y-46123006D01*
X2468602Y-46156770D01*
X2461082Y-46166292D01*
X2450695Y-46176697D01*
X2357885Y-46327262D01*
X2302203Y-46495139D01*
X2291500Y-46599600D01*
X2291500Y-47400400D01*
X2292175Y-47406905D01*
X2292175Y-47406906D01*
X2292854Y-47413445D01*
X2302474Y-47506166D01*
X2306855Y-47519297D01*
X2353392Y-47658784D01*
X2358450Y-47673946D01*
X2451522Y-47824348D01*
X2576697Y-47949305D01*
X2589210Y-47957018D01*
X2671257Y-48007593D01*
X2743570Y-48074791D01*
X2784664Y-48164547D01*
X2791500Y-48222964D01*
X2791500Y-48467971D01*
X2772242Y-48564790D01*
X2717398Y-48646869D01*
X2642411Y-48698647D01*
X2486925Y-48768688D01*
X2295681Y-48897441D01*
X2128865Y-49056576D01*
X1991246Y-49241542D01*
X1952965Y-49316835D01*
X1906180Y-49408855D01*
X1886760Y-49447051D01*
X1818393Y-49667227D01*
X1816986Y-49677845D01*
X1795633Y-49838956D01*
X1788102Y-49895774D01*
X508500Y-49895774D01*
X508500Y-34971082D01*
X1817000Y-34971082D01*
X1821134Y-34991866D01*
X1841918Y-34996000D01*
X3246082Y-34996000D01*
X3266866Y-34991866D01*
X3271000Y-34971082D01*
X3779000Y-34971082D01*
X3783134Y-34991866D01*
X3803918Y-34996000D01*
X5208081Y-34996000D01*
X5228865Y-34991866D01*
X5232999Y-34971082D01*
X5232999Y-34358755D01*
X5232260Y-34345112D01*
X5227965Y-34305564D01*
X5220682Y-34274936D01*
X5181499Y-34170415D01*
X5164363Y-34139115D01*
X5098715Y-34051521D01*
X5073479Y-34026285D01*
X4985885Y-33960637D01*
X4954585Y-33943501D01*
X4850064Y-33904318D01*
X4819434Y-33897034D01*
X4779905Y-33892740D01*
X4766236Y-33892000D01*
X3803918Y-33892000D01*
X3783134Y-33896134D01*
X3779000Y-33916918D01*
X3779000Y-34971082D01*
X3271000Y-34971082D01*
X3271000Y-33916919D01*
X3266866Y-33896135D01*
X3246082Y-33892001D01*
X2283755Y-33892001D01*
X2270112Y-33892740D01*
X2230564Y-33897035D01*
X2199936Y-33904318D01*
X2095415Y-33943501D01*
X2064115Y-33960637D01*
X1976521Y-34026285D01*
X1951285Y-34051521D01*
X1885637Y-34139115D01*
X1868501Y-34170415D01*
X1829318Y-34274936D01*
X1822034Y-34305566D01*
X1817740Y-34345095D01*
X1817000Y-34358764D01*
X1817000Y-34971082D01*
X508500Y-34971082D01*
X508500Y-32376033D01*
X7933102Y-32376033D01*
X7941751Y-32606417D01*
X7943952Y-32616907D01*
X7975079Y-32765258D01*
X7989093Y-32832050D01*
X7993027Y-32842012D01*
X7993029Y-32842018D01*
X8036941Y-32953208D01*
X8073776Y-33046480D01*
X8079332Y-33055636D01*
X8079333Y-33055638D01*
X8141883Y-33158717D01*
X8193377Y-33243576D01*
X8344477Y-33417704D01*
X8439266Y-33495426D01*
X8460155Y-33512554D01*
X8522813Y-33588835D01*
X8551510Y-33683288D01*
X8541877Y-33781532D01*
X8495381Y-33868612D01*
X8457087Y-33903966D01*
X8458235Y-33905393D01*
X8433235Y-33925494D01*
X8281998Y-34069768D01*
X8267843Y-34085768D01*
X8143072Y-34253465D01*
X8131816Y-34271620D01*
X8037078Y-34457955D01*
X8029049Y-34477726D01*
X7967061Y-34677364D01*
X7962476Y-34698215D01*
X7962033Y-34701555D01*
X7963401Y-34722704D01*
X7973844Y-34726259D01*
X11304389Y-34726259D01*
X11325173Y-34722125D01*
X11326715Y-34714373D01*
X11326618Y-34713445D01*
X11302626Y-34599096D01*
X11296492Y-34578652D01*
X11219709Y-34384221D01*
X11210217Y-34365103D01*
X11101777Y-34186399D01*
X11089193Y-34169143D01*
X10952196Y-34011267D01*
X10936882Y-33996375D01*
X10829815Y-33908585D01*
X10767157Y-33832304D01*
X10738460Y-33737852D01*
X10748093Y-33639607D01*
X10794590Y-33552528D01*
X10833441Y-33517208D01*
X10832081Y-33515516D01*
X10840436Y-33508798D01*
X10849319Y-33502818D01*
X11016135Y-33343683D01*
X11153754Y-33158717D01*
X11258240Y-32953208D01*
X11303633Y-32807021D01*
X11323431Y-32743261D01*
X11323432Y-32743259D01*
X11326607Y-32733032D01*
X11356898Y-32504485D01*
X11348249Y-32274101D01*
X11319537Y-32137257D01*
X11303108Y-32058956D01*
X11303107Y-32058951D01*
X11300907Y-32048468D01*
X11296973Y-32038506D01*
X11296971Y-32038500D01*
X11220160Y-31844005D01*
X11216224Y-31834038D01*
X11153915Y-31731355D01*
X11102178Y-31646096D01*
X11102177Y-31646094D01*
X11096623Y-31636942D01*
X10945523Y-31462814D01*
X10877339Y-31406906D01*
X10830244Y-31368291D01*
X10767586Y-31292010D01*
X10738889Y-31197557D01*
X10748522Y-31099312D01*
X10795018Y-31012233D01*
X10832130Y-30975476D01*
X10840432Y-30968801D01*
X10849319Y-30962818D01*
X11016135Y-30803683D01*
X11153754Y-30618717D01*
X11258240Y-30413208D01*
X11326607Y-30193032D01*
X11356898Y-29964485D01*
X11348249Y-29734101D01*
X11300907Y-29508468D01*
X11296973Y-29498506D01*
X11296971Y-29498500D01*
X11220160Y-29304005D01*
X11216224Y-29294038D01*
X11153915Y-29191355D01*
X11102178Y-29106096D01*
X11102177Y-29106094D01*
X11096623Y-29096942D01*
X10945523Y-28922814D01*
X10830244Y-28828291D01*
X10767586Y-28752010D01*
X10738889Y-28657557D01*
X10748522Y-28559312D01*
X10795018Y-28472233D01*
X10832130Y-28435476D01*
X10840432Y-28428801D01*
X10849319Y-28422818D01*
X11016135Y-28263683D01*
X11153754Y-28078717D01*
X11258240Y-27873208D01*
X11326607Y-27653032D01*
X11356898Y-27424485D01*
X11348249Y-27194101D01*
X11330355Y-27108818D01*
X11303108Y-26978956D01*
X11303107Y-26978951D01*
X11300907Y-26968468D01*
X11296973Y-26958506D01*
X11296971Y-26958500D01*
X11220160Y-26764005D01*
X11216224Y-26754038D01*
X11160707Y-26662548D01*
X11102178Y-26566096D01*
X11102177Y-26566094D01*
X11096623Y-26556942D01*
X10945523Y-26382814D01*
X10830244Y-26288291D01*
X10767586Y-26212010D01*
X10738889Y-26117557D01*
X10748522Y-26019312D01*
X10795018Y-25932233D01*
X10832130Y-25895476D01*
X10840432Y-25888801D01*
X10849319Y-25882818D01*
X11016135Y-25723683D01*
X11153754Y-25538717D01*
X11229411Y-25389910D01*
X11253384Y-25342760D01*
X11253386Y-25342755D01*
X11258240Y-25333208D01*
X11326607Y-25113032D01*
X11345993Y-24966760D01*
X11355491Y-24895102D01*
X11355491Y-24895100D01*
X11356898Y-24884485D01*
X11348249Y-24654101D01*
X11330833Y-24571096D01*
X11303108Y-24438956D01*
X11303107Y-24438951D01*
X11300907Y-24428468D01*
X11296973Y-24418506D01*
X11296971Y-24418500D01*
X11220160Y-24224005D01*
X11216224Y-24214038D01*
X11153915Y-24111355D01*
X11102178Y-24026096D01*
X11102177Y-24026094D01*
X11096623Y-24016942D01*
X10945523Y-23842814D01*
X10829843Y-23747962D01*
X10767187Y-23671683D01*
X10738490Y-23577230D01*
X10748123Y-23478986D01*
X10794619Y-23391906D01*
X10832913Y-23356552D01*
X10831765Y-23355125D01*
X10856765Y-23335024D01*
X11008002Y-23190750D01*
X11022157Y-23174750D01*
X11146928Y-23007053D01*
X11158184Y-22988898D01*
X11252922Y-22802563D01*
X11260951Y-22782792D01*
X11322939Y-22583154D01*
X11327524Y-22562303D01*
X11327967Y-22558963D01*
X11326599Y-22537814D01*
X11316156Y-22534259D01*
X7985611Y-22534259D01*
X7964827Y-22538393D01*
X7963285Y-22546145D01*
X7963382Y-22547073D01*
X7987374Y-22661422D01*
X7993508Y-22681866D01*
X8070291Y-22876297D01*
X8079783Y-22895415D01*
X8188223Y-23074119D01*
X8200807Y-23091375D01*
X8337804Y-23249251D01*
X8353118Y-23264143D01*
X8460185Y-23351933D01*
X8522843Y-23428214D01*
X8551540Y-23522666D01*
X8541907Y-23620911D01*
X8495410Y-23707990D01*
X8456559Y-23743310D01*
X8457919Y-23745002D01*
X8449564Y-23751720D01*
X8440681Y-23757700D01*
X8432933Y-23765091D01*
X8432932Y-23765092D01*
X8401408Y-23795165D01*
X8273865Y-23916835D01*
X8136246Y-24101801D01*
X8131389Y-24111355D01*
X8037631Y-24295763D01*
X8031760Y-24307310D01*
X7963393Y-24527486D01*
X7933102Y-24756033D01*
X7941751Y-24986417D01*
X7989093Y-25212050D01*
X7993027Y-25222012D01*
X7993029Y-25222018D01*
X8036941Y-25333208D01*
X8073776Y-25426480D01*
X8079332Y-25435636D01*
X8079333Y-25435638D01*
X8156106Y-25562155D01*
X8193377Y-25623576D01*
X8344477Y-25797704D01*
X8352758Y-25804494D01*
X8352760Y-25804496D01*
X8459756Y-25892227D01*
X8522414Y-25968508D01*
X8551111Y-26062961D01*
X8541478Y-26161206D01*
X8494982Y-26248285D01*
X8457870Y-26285042D01*
X8449568Y-26291717D01*
X8440681Y-26297700D01*
X8273865Y-26456835D01*
X8136246Y-26641801D01*
X8131389Y-26651355D01*
X8041948Y-26827272D01*
X8031760Y-26847310D01*
X8010252Y-26916576D01*
X7972736Y-27037398D01*
X7963393Y-27067486D01*
X7933102Y-27296033D01*
X7941751Y-27526417D01*
X7989093Y-27752050D01*
X7993027Y-27762012D01*
X7993029Y-27762018D01*
X8036941Y-27873208D01*
X8073776Y-27966480D01*
X8079332Y-27975636D01*
X8079333Y-27975638D01*
X8141883Y-28078717D01*
X8193377Y-28163576D01*
X8344477Y-28337704D01*
X8352758Y-28344494D01*
X8352760Y-28344496D01*
X8459756Y-28432227D01*
X8522414Y-28508508D01*
X8551111Y-28602961D01*
X8541478Y-28701206D01*
X8494982Y-28788285D01*
X8457870Y-28825042D01*
X8449568Y-28831717D01*
X8440681Y-28837700D01*
X8273865Y-28996835D01*
X8136246Y-29181801D01*
X8031760Y-29387310D01*
X7963393Y-29607486D01*
X7933102Y-29836033D01*
X7941751Y-30066417D01*
X7989093Y-30292050D01*
X7993027Y-30302012D01*
X7993029Y-30302018D01*
X8036941Y-30413208D01*
X8073776Y-30506480D01*
X8079332Y-30515636D01*
X8079333Y-30515638D01*
X8141883Y-30618717D01*
X8193377Y-30703576D01*
X8344477Y-30877704D01*
X8352758Y-30884494D01*
X8352760Y-30884496D01*
X8459756Y-30972227D01*
X8522414Y-31048508D01*
X8551111Y-31142961D01*
X8541478Y-31241206D01*
X8494982Y-31328285D01*
X8457870Y-31365042D01*
X8449568Y-31371717D01*
X8440681Y-31377700D01*
X8273865Y-31536835D01*
X8136246Y-31721801D01*
X8083838Y-31824880D01*
X8074515Y-31843218D01*
X8031760Y-31927310D01*
X7997234Y-32038500D01*
X7970869Y-32123411D01*
X7963393Y-32147486D01*
X7933102Y-32376033D01*
X508500Y-32376033D01*
X508500Y-23011245D01*
X1792001Y-23011245D01*
X1792740Y-23024888D01*
X1797035Y-23064436D01*
X1804318Y-23095064D01*
X1843501Y-23199585D01*
X1860637Y-23230885D01*
X1926285Y-23318479D01*
X1951521Y-23343715D01*
X2039115Y-23409363D01*
X2070415Y-23426499D01*
X2174936Y-23465682D01*
X2205566Y-23472966D01*
X2245095Y-23477260D01*
X2258764Y-23478000D01*
X3221082Y-23478000D01*
X3241866Y-23473866D01*
X3246000Y-23453082D01*
X3246000Y-23453081D01*
X3754000Y-23453081D01*
X3758134Y-23473865D01*
X3778918Y-23477999D01*
X4741245Y-23477999D01*
X4754888Y-23477260D01*
X4794436Y-23472965D01*
X4825064Y-23465682D01*
X4929585Y-23426499D01*
X4960885Y-23409363D01*
X5048479Y-23343715D01*
X5073715Y-23318479D01*
X5139363Y-23230885D01*
X5156499Y-23199585D01*
X5195682Y-23095064D01*
X5202966Y-23064434D01*
X5207260Y-23024905D01*
X5208000Y-23011236D01*
X5208000Y-22398918D01*
X5203866Y-22378134D01*
X5183082Y-22374000D01*
X3778918Y-22374000D01*
X3758134Y-22378134D01*
X3754000Y-22398918D01*
X3754000Y-23453081D01*
X3246000Y-23453081D01*
X3246000Y-22398918D01*
X3241866Y-22378134D01*
X3221082Y-22374000D01*
X1816919Y-22374000D01*
X1796135Y-22378134D01*
X1792001Y-22398918D01*
X1792001Y-23011245D01*
X508500Y-23011245D01*
X508500Y-19515774D01*
X1788102Y-19515774D01*
X1796751Y-19746158D01*
X1798952Y-19756648D01*
X1828130Y-19895709D01*
X1844093Y-19971791D01*
X1848027Y-19981753D01*
X1848029Y-19981759D01*
X1896292Y-20103966D01*
X1928776Y-20186221D01*
X1934332Y-20195377D01*
X1934333Y-20195379D01*
X2026024Y-20346480D01*
X2048377Y-20383317D01*
X2055397Y-20391407D01*
X2055400Y-20391411D01*
X2102860Y-20446105D01*
X2151769Y-20531853D01*
X2164141Y-20629790D01*
X2138092Y-20725007D01*
X2077588Y-20803007D01*
X2053493Y-20819768D01*
X2053538Y-20819828D01*
X1951521Y-20896285D01*
X1926285Y-20921521D01*
X1860637Y-21009115D01*
X1843501Y-21040415D01*
X1804318Y-21144936D01*
X1797034Y-21175566D01*
X1792740Y-21215095D01*
X1792000Y-21228764D01*
X1792000Y-21841082D01*
X1796134Y-21861866D01*
X1816918Y-21866000D01*
X5183081Y-21866000D01*
X5203865Y-21861866D01*
X5207999Y-21841082D01*
X5207999Y-21228755D01*
X5207260Y-21215112D01*
X5202965Y-21175564D01*
X5195682Y-21144936D01*
X5156499Y-21040415D01*
X5139363Y-21009115D01*
X5073715Y-20921521D01*
X5048479Y-20896285D01*
X4946462Y-20819828D01*
X4948080Y-20817670D01*
X4892933Y-20771476D01*
X4847277Y-20683953D01*
X4838589Y-20585621D01*
X4868194Y-20491449D01*
X4887129Y-20461927D01*
X4889518Y-20458717D01*
X4940290Y-20390477D01*
X5013535Y-20324295D01*
X5106531Y-20291182D01*
X5143270Y-20288500D01*
X6386764Y-20288500D01*
X6403971Y-20289086D01*
X6442138Y-20291688D01*
X6442139Y-20291688D01*
X6457352Y-20292725D01*
X6472369Y-20290104D01*
X6472372Y-20290104D01*
X6505570Y-20284310D01*
X6517015Y-20282312D01*
X6530115Y-20280378D01*
X6575099Y-20274935D01*
X6575103Y-20274934D01*
X6590242Y-20273102D01*
X6604514Y-20267709D01*
X6605528Y-20267460D01*
X6607926Y-20266957D01*
X6610229Y-20266175D01*
X6611250Y-20265867D01*
X6626284Y-20263243D01*
X6640256Y-20257110D01*
X6640258Y-20257109D01*
X6681744Y-20238898D01*
X6693999Y-20233896D01*
X6750656Y-20212487D01*
X6763228Y-20203847D01*
X6764177Y-20203351D01*
X6766372Y-20202297D01*
X6768403Y-20201001D01*
X6769347Y-20200443D01*
X6783305Y-20194315D01*
X6831361Y-20157439D01*
X6842065Y-20149663D01*
X6891981Y-20115357D01*
X6930992Y-20071572D01*
X6940993Y-20060977D01*
X7501681Y-19500289D01*
X7583760Y-19445445D01*
X7680579Y-19426187D01*
X7777398Y-19445445D01*
X7859477Y-19500289D01*
X7914321Y-19582368D01*
X7932953Y-19676039D01*
X7933102Y-19676033D01*
X7941751Y-19906417D01*
X7943952Y-19916907D01*
X7976404Y-20071572D01*
X7989093Y-20132050D01*
X7993027Y-20142012D01*
X7993029Y-20142018D01*
X8036941Y-20253208D01*
X8073776Y-20346480D01*
X8079332Y-20355636D01*
X8079333Y-20355638D01*
X8186263Y-20531853D01*
X8193377Y-20543576D01*
X8344477Y-20717704D01*
X8460155Y-20812554D01*
X8522813Y-20888835D01*
X8551510Y-20983288D01*
X8541877Y-21081532D01*
X8495381Y-21168612D01*
X8457087Y-21203966D01*
X8458235Y-21205393D01*
X8433235Y-21225494D01*
X8281998Y-21369768D01*
X8267843Y-21385768D01*
X8143072Y-21553465D01*
X8131816Y-21571620D01*
X8037078Y-21757955D01*
X8029049Y-21777726D01*
X7967061Y-21977364D01*
X7962476Y-21998215D01*
X7962033Y-22001555D01*
X7963401Y-22022704D01*
X7973844Y-22026259D01*
X11304389Y-22026259D01*
X11325173Y-22022125D01*
X11326715Y-22014373D01*
X11326618Y-22013445D01*
X11302626Y-21899096D01*
X11296492Y-21878652D01*
X11219709Y-21684221D01*
X11210217Y-21665103D01*
X11101777Y-21486399D01*
X11089193Y-21469143D01*
X10952196Y-21311267D01*
X10936882Y-21296375D01*
X10829815Y-21208585D01*
X10767157Y-21132304D01*
X10738460Y-21037852D01*
X10748093Y-20939607D01*
X10794590Y-20852528D01*
X10833441Y-20817208D01*
X10832081Y-20815516D01*
X10840436Y-20808798D01*
X10849319Y-20802818D01*
X11016135Y-20643683D01*
X11153754Y-20458717D01*
X11240297Y-20288500D01*
X11253384Y-20262760D01*
X11253386Y-20262755D01*
X11258240Y-20253208D01*
X11326607Y-20033032D01*
X11356898Y-19804485D01*
X11348249Y-19574101D01*
X11328376Y-19479386D01*
X11327342Y-19380679D01*
X11364162Y-19289087D01*
X11433229Y-19218557D01*
X11524030Y-19179827D01*
X11575984Y-19174435D01*
X23000829Y-19174435D01*
X23018036Y-19175021D01*
X23056203Y-19177623D01*
X23056204Y-19177623D01*
X23071417Y-19178660D01*
X23086434Y-19176039D01*
X23086437Y-19176039D01*
X23119635Y-19170245D01*
X23131080Y-19168247D01*
X23144180Y-19166313D01*
X23189164Y-19160870D01*
X23189168Y-19160869D01*
X23204307Y-19159037D01*
X23218579Y-19153644D01*
X23219593Y-19153395D01*
X23221991Y-19152892D01*
X23224294Y-19152110D01*
X23225315Y-19151802D01*
X23240349Y-19149178D01*
X23254321Y-19143045D01*
X23254323Y-19143044D01*
X23295809Y-19124833D01*
X23308064Y-19119831D01*
X23364721Y-19098422D01*
X23377293Y-19089782D01*
X23378242Y-19089286D01*
X23380437Y-19088232D01*
X23382468Y-19086936D01*
X23383412Y-19086378D01*
X23397370Y-19080250D01*
X23445426Y-19043374D01*
X23456130Y-19035598D01*
X23506046Y-19001292D01*
X23545057Y-18957507D01*
X23555058Y-18946912D01*
X25291664Y-17210306D01*
X25373743Y-17155462D01*
X25470562Y-17136204D01*
X25567381Y-17155462D01*
X25649460Y-17210306D01*
X25704304Y-17292385D01*
X25721411Y-17357366D01*
X25721751Y-17366417D01*
X25723950Y-17376900D01*
X25723951Y-17376904D01*
X25750710Y-17504435D01*
X25769093Y-17592050D01*
X25773027Y-17602012D01*
X25773029Y-17602018D01*
X25816941Y-17713208D01*
X25853776Y-17806480D01*
X25859332Y-17815636D01*
X25859333Y-17815638D01*
X25940444Y-17949305D01*
X25973377Y-18003576D01*
X26124477Y-18177704D01*
X26132758Y-18184494D01*
X26132760Y-18184496D01*
X26239756Y-18272227D01*
X26302414Y-18348508D01*
X26331111Y-18442961D01*
X26321478Y-18541206D01*
X26274982Y-18628285D01*
X26237870Y-18665042D01*
X26229568Y-18671717D01*
X26220681Y-18677700D01*
X26053865Y-18836835D01*
X25916246Y-19021801D01*
X25881935Y-19089286D01*
X25835902Y-19179827D01*
X25811760Y-19227310D01*
X25793155Y-19287227D01*
X25750007Y-19426187D01*
X25743393Y-19447486D01*
X25713102Y-19676033D01*
X25721751Y-19906417D01*
X25723952Y-19916907D01*
X25756404Y-20071572D01*
X25769093Y-20132050D01*
X25773027Y-20142012D01*
X25773029Y-20142018D01*
X25816941Y-20253208D01*
X25853776Y-20346480D01*
X25859332Y-20355636D01*
X25859333Y-20355638D01*
X25966263Y-20531853D01*
X25973377Y-20543576D01*
X26124477Y-20717704D01*
X26240155Y-20812554D01*
X26302813Y-20888835D01*
X26331510Y-20983288D01*
X26321877Y-21081532D01*
X26275381Y-21168612D01*
X26237087Y-21203966D01*
X26238235Y-21205393D01*
X26213235Y-21225494D01*
X26061998Y-21369768D01*
X26047843Y-21385768D01*
X25923072Y-21553465D01*
X25911816Y-21571620D01*
X25817078Y-21757955D01*
X25809049Y-21777726D01*
X25747061Y-21977364D01*
X25742476Y-21998215D01*
X25742033Y-22001555D01*
X25743401Y-22022704D01*
X25753844Y-22026259D01*
X29084389Y-22026259D01*
X29105173Y-22022125D01*
X29106715Y-22014373D01*
X29106618Y-22013445D01*
X29082626Y-21899096D01*
X29076492Y-21878652D01*
X28999709Y-21684221D01*
X28990217Y-21665103D01*
X28881777Y-21486399D01*
X28869193Y-21469143D01*
X28732196Y-21311267D01*
X28716882Y-21296375D01*
X28609815Y-21208585D01*
X28547157Y-21132304D01*
X28518460Y-21037852D01*
X28528093Y-20939607D01*
X28574590Y-20852528D01*
X28613441Y-20817208D01*
X28612081Y-20815516D01*
X28620436Y-20808798D01*
X28629319Y-20802818D01*
X28796135Y-20643683D01*
X28933754Y-20458717D01*
X29020297Y-20288500D01*
X29033384Y-20262760D01*
X29033386Y-20262755D01*
X29038240Y-20253208D01*
X29106607Y-20033032D01*
X29136898Y-19804485D01*
X29128249Y-19574101D01*
X29097214Y-19426187D01*
X29083108Y-19358956D01*
X29083107Y-19358951D01*
X29080907Y-19348468D01*
X29076973Y-19338506D01*
X29076971Y-19338500D01*
X29008970Y-19166313D01*
X28996224Y-19134038D01*
X28989021Y-19122167D01*
X28882178Y-18946096D01*
X28882177Y-18946094D01*
X28876623Y-18936942D01*
X28725523Y-18762814D01*
X28610244Y-18668291D01*
X28547586Y-18592010D01*
X28518889Y-18497557D01*
X28528522Y-18399312D01*
X28575018Y-18312233D01*
X28612130Y-18275476D01*
X28620432Y-18268801D01*
X28629319Y-18262818D01*
X28796135Y-18103683D01*
X28933754Y-17918717D01*
X29015754Y-17757435D01*
X29033384Y-17722760D01*
X29033386Y-17722755D01*
X29038240Y-17713208D01*
X29083633Y-17567021D01*
X29103431Y-17503261D01*
X29103432Y-17503259D01*
X29106607Y-17493032D01*
X29136898Y-17264485D01*
X29128249Y-17034101D01*
X29080907Y-16808468D01*
X29076973Y-16798506D01*
X29076971Y-16798500D01*
X29018569Y-16650619D01*
X28996224Y-16594038D01*
X28944550Y-16508881D01*
X28882178Y-16406096D01*
X28882177Y-16406094D01*
X28876623Y-16396942D01*
X28725523Y-16222814D01*
X28669280Y-16176697D01*
X28610244Y-16128291D01*
X28547586Y-16052010D01*
X28518889Y-15957557D01*
X28528522Y-15859312D01*
X28575018Y-15772233D01*
X28612130Y-15735476D01*
X28620432Y-15728801D01*
X28629319Y-15722818D01*
X28796135Y-15563683D01*
X28933754Y-15378717D01*
X28990818Y-15266480D01*
X29033384Y-15182760D01*
X29033386Y-15182755D01*
X29038240Y-15173208D01*
X29083633Y-15027021D01*
X29103431Y-14963261D01*
X29103432Y-14963259D01*
X29106607Y-14953032D01*
X29131496Y-14765242D01*
X29135491Y-14735102D01*
X29135491Y-14735100D01*
X29136898Y-14724485D01*
X29128249Y-14494101D01*
X29127318Y-14489663D01*
X29134433Y-14393893D01*
X29178863Y-14305741D01*
X29253646Y-14241302D01*
X29347395Y-14210386D01*
X29378233Y-14208500D01*
X32052719Y-14208500D01*
X32149538Y-14227758D01*
X32231617Y-14282602D01*
X32286461Y-14364681D01*
X32305719Y-14461500D01*
X32302150Y-14495185D01*
X32302696Y-14495241D01*
X32292659Y-14593207D01*
X32292000Y-14606096D01*
X32292000Y-14721082D01*
X32296134Y-14741866D01*
X32316918Y-14746000D01*
X33501000Y-14746000D01*
X33597819Y-14765258D01*
X33679898Y-14820102D01*
X33734742Y-14902181D01*
X33754000Y-14999000D01*
X33754000Y-15001000D01*
X33734742Y-15097819D01*
X33679898Y-15179898D01*
X33597819Y-15234742D01*
X33501000Y-15254000D01*
X32316919Y-15254000D01*
X32296135Y-15258134D01*
X32292001Y-15278918D01*
X32292001Y-15393821D01*
X32292676Y-15406869D01*
X32301539Y-15492291D01*
X32307350Y-15519198D01*
X32354253Y-15659786D01*
X32366641Y-15686232D01*
X32444185Y-15811540D01*
X32468648Y-15842404D01*
X32513696Y-15930242D01*
X32521700Y-16028633D01*
X32491442Y-16122597D01*
X32468924Y-16156362D01*
X32461081Y-16166293D01*
X32450695Y-16176697D01*
X32442982Y-16189210D01*
X32376641Y-16296835D01*
X32357885Y-16327262D01*
X32302203Y-16495139D01*
X32291500Y-16599600D01*
X32291500Y-17400400D01*
X32292175Y-17406905D01*
X32292175Y-17406906D01*
X32300010Y-17482414D01*
X32302474Y-17506166D01*
X32306855Y-17519297D01*
X32352256Y-17655379D01*
X32358450Y-17673946D01*
X32451522Y-17824348D01*
X32576697Y-17949305D01*
X32674118Y-18009356D01*
X32696257Y-18023003D01*
X32768570Y-18090201D01*
X32809663Y-18179957D01*
X32816500Y-18238374D01*
X32816500Y-18588500D01*
X32797242Y-18685319D01*
X32742398Y-18767398D01*
X32660319Y-18822242D01*
X32563500Y-18841500D01*
X32276866Y-18841500D01*
X32270058Y-18842240D01*
X32270050Y-18842240D01*
X32230458Y-18846541D01*
X32230455Y-18846542D01*
X32214684Y-18848255D01*
X32153756Y-18871096D01*
X32095174Y-18893057D01*
X32095172Y-18893058D01*
X32078295Y-18899385D01*
X32063874Y-18910193D01*
X32063872Y-18910194D01*
X32014880Y-18946912D01*
X31961739Y-18986739D01*
X31874385Y-19103295D01*
X31868058Y-19120172D01*
X31868057Y-19120174D01*
X31866293Y-19124880D01*
X31823255Y-19239684D01*
X31816500Y-19301866D01*
X31816500Y-20801734D01*
X31797242Y-20898553D01*
X31742398Y-20980632D01*
X28972594Y-23750436D01*
X28890515Y-23805280D01*
X28793696Y-23824538D01*
X28696877Y-23805280D01*
X28633282Y-23767181D01*
X28609840Y-23747960D01*
X28547185Y-23671680D01*
X28518490Y-23577227D01*
X28528124Y-23478983D01*
X28574621Y-23391903D01*
X28612912Y-23356552D01*
X28611765Y-23355125D01*
X28636765Y-23335024D01*
X28788002Y-23190750D01*
X28802157Y-23174750D01*
X28926928Y-23007053D01*
X28938184Y-22988898D01*
X29032922Y-22802563D01*
X29040951Y-22782792D01*
X29102939Y-22583154D01*
X29107524Y-22562303D01*
X29107967Y-22558963D01*
X29106599Y-22537814D01*
X29096156Y-22534259D01*
X25765611Y-22534259D01*
X25744827Y-22538393D01*
X25743285Y-22546145D01*
X25743382Y-22547073D01*
X25767374Y-22661422D01*
X25773508Y-22681866D01*
X25850291Y-22876297D01*
X25859783Y-22895415D01*
X25968223Y-23074119D01*
X25980807Y-23091375D01*
X26117804Y-23249251D01*
X26133118Y-23264143D01*
X26240185Y-23351933D01*
X26302843Y-23428214D01*
X26331540Y-23522666D01*
X26321907Y-23620911D01*
X26275410Y-23707990D01*
X26236559Y-23743310D01*
X26237919Y-23745002D01*
X26229564Y-23751720D01*
X26220681Y-23757700D01*
X26212933Y-23765091D01*
X26212932Y-23765092D01*
X26181408Y-23795165D01*
X26053865Y-23916835D01*
X25916246Y-24101801D01*
X25911389Y-24111355D01*
X25817631Y-24295763D01*
X25811760Y-24307310D01*
X25743393Y-24527486D01*
X25713102Y-24756033D01*
X25721751Y-24986417D01*
X25769093Y-25212050D01*
X25773027Y-25222012D01*
X25773029Y-25222018D01*
X25816941Y-25333208D01*
X25853776Y-25426480D01*
X25859332Y-25435636D01*
X25859333Y-25435638D01*
X25936106Y-25562155D01*
X25973377Y-25623576D01*
X26124477Y-25797704D01*
X26132758Y-25804494D01*
X26132760Y-25804496D01*
X26239756Y-25892227D01*
X26302414Y-25968508D01*
X26331111Y-26062961D01*
X26321478Y-26161206D01*
X26274982Y-26248285D01*
X26237870Y-26285042D01*
X26229568Y-26291717D01*
X26220681Y-26297700D01*
X26053865Y-26456835D01*
X25916246Y-26641801D01*
X25911389Y-26651355D01*
X25821948Y-26827272D01*
X25811760Y-26847310D01*
X25790252Y-26916576D01*
X25752736Y-27037398D01*
X25743393Y-27067486D01*
X25713102Y-27296033D01*
X25721751Y-27526417D01*
X25769093Y-27752050D01*
X25773027Y-27762012D01*
X25773029Y-27762018D01*
X25816941Y-27873208D01*
X25853776Y-27966480D01*
X25859332Y-27975636D01*
X25859333Y-27975638D01*
X25921883Y-28078717D01*
X25973377Y-28163576D01*
X26124477Y-28337704D01*
X26132758Y-28344494D01*
X26132760Y-28344496D01*
X26239756Y-28432227D01*
X26302414Y-28508508D01*
X26331111Y-28602961D01*
X26321478Y-28701206D01*
X26274982Y-28788285D01*
X26237870Y-28825042D01*
X26229568Y-28831717D01*
X26220681Y-28837700D01*
X26053865Y-28996835D01*
X25916246Y-29181801D01*
X25811760Y-29387310D01*
X25743393Y-29607486D01*
X25713102Y-29836033D01*
X25721751Y-30066417D01*
X25769093Y-30292050D01*
X25773027Y-30302012D01*
X25773029Y-30302018D01*
X25816941Y-30413208D01*
X25853776Y-30506480D01*
X25859332Y-30515636D01*
X25859333Y-30515638D01*
X25921883Y-30618717D01*
X25973377Y-30703576D01*
X26124477Y-30877704D01*
X26132758Y-30884494D01*
X26132760Y-30884496D01*
X26239756Y-30972227D01*
X26302414Y-31048508D01*
X26331111Y-31142961D01*
X26321478Y-31241206D01*
X26274982Y-31328285D01*
X26237870Y-31365042D01*
X26229568Y-31371717D01*
X26220681Y-31377700D01*
X26053865Y-31536835D01*
X25916246Y-31721801D01*
X25863838Y-31824880D01*
X25854515Y-31843218D01*
X25811760Y-31927310D01*
X25777234Y-32038500D01*
X25750869Y-32123411D01*
X25743393Y-32147486D01*
X25713102Y-32376033D01*
X25721751Y-32606417D01*
X25723952Y-32616907D01*
X25755079Y-32765258D01*
X25769093Y-32832050D01*
X25773027Y-32842012D01*
X25773029Y-32842018D01*
X25816941Y-32953208D01*
X25853776Y-33046480D01*
X25859332Y-33055636D01*
X25859333Y-33055638D01*
X25921883Y-33158717D01*
X25973377Y-33243576D01*
X26124477Y-33417704D01*
X26219266Y-33495426D01*
X26240155Y-33512554D01*
X26302813Y-33588835D01*
X26331510Y-33683288D01*
X26321877Y-33781532D01*
X26275381Y-33868612D01*
X26237087Y-33903966D01*
X26238235Y-33905393D01*
X26213235Y-33925494D01*
X26061998Y-34069768D01*
X26047843Y-34085768D01*
X25923072Y-34253465D01*
X25911816Y-34271620D01*
X25817078Y-34457955D01*
X25809049Y-34477726D01*
X25747061Y-34677364D01*
X25742476Y-34698215D01*
X25742033Y-34701555D01*
X25743401Y-34722704D01*
X25753844Y-34726259D01*
X29084389Y-34726259D01*
X29105173Y-34722125D01*
X29106715Y-34714373D01*
X29106618Y-34713445D01*
X29082626Y-34599096D01*
X29076492Y-34578652D01*
X28999709Y-34384221D01*
X28990217Y-34365103D01*
X28881777Y-34186399D01*
X28869193Y-34169143D01*
X28732196Y-34011267D01*
X28716882Y-33996375D01*
X28609815Y-33908585D01*
X28547157Y-33832304D01*
X28518460Y-33737852D01*
X28528093Y-33639607D01*
X28574590Y-33552528D01*
X28613441Y-33517208D01*
X28612081Y-33515516D01*
X28620436Y-33508798D01*
X28629319Y-33502818D01*
X28743577Y-33393821D01*
X32292001Y-33393821D01*
X32292676Y-33406869D01*
X32301539Y-33492291D01*
X32307350Y-33519198D01*
X32354253Y-33659786D01*
X32366641Y-33686232D01*
X32444184Y-33811538D01*
X32462318Y-33834418D01*
X32566607Y-33938526D01*
X32589522Y-33956623D01*
X32714964Y-34033946D01*
X32741423Y-34046284D01*
X32882124Y-34092953D01*
X32908991Y-34098713D01*
X32993207Y-34107341D01*
X33006096Y-34108000D01*
X33221082Y-34108000D01*
X33241866Y-34103866D01*
X33246000Y-34083082D01*
X33246000Y-33278918D01*
X33241866Y-33258134D01*
X33221082Y-33254000D01*
X32316919Y-33254000D01*
X32296135Y-33258134D01*
X32292001Y-33278918D01*
X32292001Y-33393821D01*
X28743577Y-33393821D01*
X28796135Y-33343683D01*
X28933754Y-33158717D01*
X29038240Y-32953208D01*
X29083633Y-32807021D01*
X29103431Y-32743261D01*
X29103432Y-32743259D01*
X29106607Y-32733032D01*
X29136898Y-32504485D01*
X29128249Y-32274101D01*
X29099537Y-32137257D01*
X29083108Y-32058956D01*
X29083107Y-32058951D01*
X29080907Y-32048468D01*
X29076973Y-32038506D01*
X29076971Y-32038500D01*
X29000160Y-31844005D01*
X28996224Y-31834038D01*
X28933915Y-31731355D01*
X28882178Y-31646096D01*
X28882177Y-31646094D01*
X28876623Y-31636942D01*
X28725523Y-31462814D01*
X28657339Y-31406906D01*
X28610244Y-31368291D01*
X28547586Y-31292010D01*
X28518889Y-31197557D01*
X28528522Y-31099312D01*
X28575018Y-31012233D01*
X28612130Y-30975476D01*
X28620432Y-30968801D01*
X28629319Y-30962818D01*
X28796135Y-30803683D01*
X28933754Y-30618717D01*
X29038240Y-30413208D01*
X29106607Y-30193032D01*
X29136898Y-29964485D01*
X29128249Y-29734101D01*
X29080907Y-29508468D01*
X29076973Y-29498506D01*
X29076971Y-29498500D01*
X29000160Y-29304005D01*
X28996224Y-29294038D01*
X28933915Y-29191355D01*
X28882178Y-29106096D01*
X28882177Y-29106094D01*
X28876623Y-29096942D01*
X28789755Y-28996835D01*
X28746785Y-28947316D01*
X28697876Y-28861568D01*
X28685504Y-28763631D01*
X28711553Y-28668414D01*
X28772056Y-28590413D01*
X28857804Y-28541504D01*
X28937872Y-28528500D01*
X31876724Y-28528500D01*
X31973543Y-28547758D01*
X32055622Y-28602602D01*
X32073359Y-28623333D01*
X32073377Y-28623317D01*
X32224477Y-28797445D01*
X32402755Y-28943624D01*
X32412066Y-28948924D01*
X32582822Y-29046124D01*
X32603114Y-29057675D01*
X32649824Y-29074630D01*
X32734260Y-29125765D01*
X32792701Y-29205322D01*
X32816249Y-29301188D01*
X32816500Y-29312447D01*
X32816500Y-29761517D01*
X32797242Y-29858336D01*
X32742398Y-29940415D01*
X32696633Y-29976656D01*
X32588148Y-30043789D01*
X32575652Y-30051522D01*
X32450695Y-30176697D01*
X32357885Y-30327262D01*
X32302203Y-30495139D01*
X32291500Y-30599600D01*
X32291500Y-31400400D01*
X32302474Y-31506166D01*
X32358450Y-31673946D01*
X32451522Y-31824348D01*
X32461924Y-31834732D01*
X32468650Y-31843218D01*
X32513696Y-31931056D01*
X32521699Y-32029447D01*
X32491441Y-32123411D01*
X32468926Y-32157172D01*
X32443374Y-32189527D01*
X32366054Y-32314964D01*
X32353716Y-32341423D01*
X32307047Y-32482124D01*
X32301287Y-32508991D01*
X32292659Y-32593207D01*
X32292000Y-32606096D01*
X32292000Y-32721082D01*
X32296134Y-32741866D01*
X32316918Y-32746000D01*
X33501000Y-32746000D01*
X33597819Y-32765258D01*
X33679898Y-32820102D01*
X33734742Y-32902181D01*
X33754000Y-32999000D01*
X33754000Y-34083081D01*
X33758134Y-34103865D01*
X33778918Y-34107999D01*
X34000362Y-34107999D01*
X34000362Y-34109432D01*
X34089076Y-34122362D01*
X34173875Y-34172898D01*
X34232881Y-34252038D01*
X34257109Y-34347734D01*
X34242872Y-34445418D01*
X34192336Y-34530217D01*
X34183344Y-34539686D01*
X33955632Y-34767398D01*
X33873553Y-34822242D01*
X33776734Y-34841500D01*
X32626866Y-34841500D01*
X32620058Y-34842240D01*
X32620050Y-34842240D01*
X32580458Y-34846541D01*
X32580455Y-34846542D01*
X32564684Y-34848255D01*
X32496396Y-34873855D01*
X32445174Y-34893057D01*
X32445172Y-34893058D01*
X32428295Y-34899385D01*
X32413874Y-34910193D01*
X32413872Y-34910194D01*
X32413300Y-34910623D01*
X32311739Y-34986739D01*
X32224385Y-35103295D01*
X32173255Y-35239684D01*
X32171542Y-35255455D01*
X32171541Y-35255458D01*
X32168533Y-35283154D01*
X32166500Y-35301866D01*
X32166500Y-37098134D01*
X32167240Y-37104942D01*
X32167240Y-37104950D01*
X32171541Y-37144542D01*
X32173255Y-37160316D01*
X32224385Y-37296705D01*
X32235196Y-37311130D01*
X32235197Y-37311132D01*
X32296507Y-37392938D01*
X32339161Y-37481963D01*
X32344500Y-37580534D01*
X32311711Y-37673645D01*
X32268689Y-37727730D01*
X32161998Y-37829509D01*
X32147843Y-37845509D01*
X32023072Y-38013206D01*
X32011816Y-38031361D01*
X31917078Y-38217696D01*
X31909049Y-38237467D01*
X31847061Y-38437105D01*
X31842476Y-38457956D01*
X31842033Y-38461296D01*
X31843401Y-38482445D01*
X31853844Y-38486000D01*
X35184389Y-38486000D01*
X35205173Y-38481866D01*
X35206715Y-38474114D01*
X35206618Y-38473186D01*
X35182626Y-38358837D01*
X35176492Y-38338393D01*
X35099709Y-38143962D01*
X35090217Y-38124844D01*
X34981777Y-37946140D01*
X34969193Y-37928884D01*
X34832196Y-37771008D01*
X34816888Y-37756121D01*
X34796318Y-37739255D01*
X34733660Y-37662974D01*
X34704964Y-37568521D01*
X34714597Y-37470277D01*
X34754283Y-37391884D01*
X34814803Y-37311132D01*
X34814804Y-37311130D01*
X34825615Y-37296705D01*
X34876745Y-37160316D01*
X34878459Y-37144542D01*
X34882760Y-37104950D01*
X34882760Y-37104942D01*
X34883500Y-37098134D01*
X34883500Y-35948266D01*
X34902758Y-35851447D01*
X34957602Y-35769368D01*
X35646765Y-35080205D01*
X35659346Y-35068452D01*
X35660222Y-35067688D01*
X35699679Y-35033267D01*
X35734515Y-34983701D01*
X35742398Y-34973086D01*
X35743970Y-34971082D01*
X35779770Y-34925424D01*
X35786044Y-34911528D01*
X35786592Y-34910623D01*
X35787928Y-34908577D01*
X35789010Y-34906383D01*
X35789510Y-34905450D01*
X35798284Y-34892967D01*
X35813545Y-34853825D01*
X35820288Y-34836531D01*
X35825420Y-34824321D01*
X35826359Y-34822242D01*
X35850339Y-34769133D01*
X35853118Y-34754139D01*
X35853439Y-34753116D01*
X35854245Y-34750821D01*
X35854767Y-34748456D01*
X35855037Y-34747406D01*
X35860576Y-34733197D01*
X35868484Y-34673130D01*
X35870556Y-34660051D01*
X35881590Y-34600520D01*
X35878214Y-34541973D01*
X35877794Y-34527409D01*
X35877794Y-26957545D01*
X35878380Y-26940338D01*
X35880983Y-26902156D01*
X35880983Y-26902155D01*
X35882020Y-26886942D01*
X35879399Y-26871926D01*
X35879399Y-26871921D01*
X35871606Y-26827272D01*
X35869671Y-26814169D01*
X35864229Y-26769195D01*
X35864228Y-26769191D01*
X35862396Y-26754052D01*
X35857003Y-26739779D01*
X35856755Y-26738771D01*
X35856249Y-26736359D01*
X35855474Y-26734076D01*
X35855158Y-26733030D01*
X35852537Y-26718011D01*
X35828180Y-26662524D01*
X35823198Y-26650315D01*
X35801781Y-26593638D01*
X35793139Y-26581063D01*
X35792649Y-26580127D01*
X35791591Y-26577924D01*
X35790277Y-26575865D01*
X35789741Y-26574959D01*
X35783609Y-26560989D01*
X35746733Y-26512933D01*
X35738957Y-26502229D01*
X35704651Y-26452313D01*
X35660866Y-26413302D01*
X35650271Y-26403301D01*
X35222969Y-25975999D01*
X35168125Y-25893920D01*
X35148867Y-25797101D01*
X35160247Y-25722075D01*
X35203431Y-25583002D01*
X35203432Y-25583000D01*
X35206607Y-25572773D01*
X35234244Y-25364254D01*
X35235491Y-25354843D01*
X35235491Y-25354841D01*
X35236898Y-25344226D01*
X35228249Y-25113842D01*
X35180907Y-24888209D01*
X35176973Y-24878247D01*
X35176971Y-24878241D01*
X35100160Y-24683746D01*
X35096224Y-24673779D01*
X35033915Y-24571096D01*
X34982178Y-24485837D01*
X34982177Y-24485835D01*
X34976623Y-24476683D01*
X34825523Y-24302555D01*
X34729725Y-24224005D01*
X34710244Y-24208032D01*
X34647586Y-24131751D01*
X34618889Y-24037298D01*
X34628522Y-23939053D01*
X34675018Y-23851974D01*
X34712130Y-23815217D01*
X34720432Y-23808542D01*
X34729319Y-23802559D01*
X34896135Y-23643424D01*
X35033754Y-23458458D01*
X35138240Y-23252949D01*
X35187265Y-23095064D01*
X35203431Y-23043002D01*
X35203432Y-23043000D01*
X35206607Y-23032773D01*
X35236898Y-22804226D01*
X35228249Y-22573842D01*
X35217326Y-22521783D01*
X35216292Y-22423077D01*
X35253111Y-22331484D01*
X35286036Y-22290934D01*
X35637550Y-21939420D01*
X35650131Y-21927667D01*
X35678970Y-21902509D01*
X35690464Y-21892482D01*
X35725300Y-21842915D01*
X35733167Y-21832321D01*
X35770556Y-21784639D01*
X35776831Y-21770741D01*
X35777388Y-21769822D01*
X35778720Y-21767783D01*
X35779793Y-21765607D01*
X35780305Y-21764653D01*
X35789069Y-21752182D01*
X35794606Y-21737981D01*
X35794608Y-21737977D01*
X35811076Y-21695739D01*
X35816207Y-21683533D01*
X35841124Y-21628348D01*
X35843903Y-21613354D01*
X35844224Y-21612331D01*
X35845029Y-21610037D01*
X35845552Y-21607670D01*
X35845821Y-21606622D01*
X35851361Y-21592412D01*
X35853351Y-21577298D01*
X35853352Y-21577293D01*
X35859267Y-21532357D01*
X35861337Y-21519290D01*
X35872375Y-21459734D01*
X35868997Y-21401148D01*
X35868579Y-21386619D01*
X35868579Y-14193330D01*
X35869165Y-14176123D01*
X35871768Y-14137941D01*
X35871768Y-14137940D01*
X35872805Y-14122727D01*
X35870184Y-14107711D01*
X35870184Y-14107706D01*
X35862391Y-14063057D01*
X35860456Y-14049954D01*
X35855014Y-14004980D01*
X35855013Y-14004976D01*
X35853181Y-13989837D01*
X35847788Y-13975564D01*
X35847540Y-13974556D01*
X35847034Y-13972146D01*
X35846258Y-13969859D01*
X35845944Y-13968818D01*
X35843322Y-13953796D01*
X35837193Y-13939835D01*
X35837192Y-13939830D01*
X35818969Y-13898317D01*
X35813964Y-13886053D01*
X35802964Y-13856942D01*
X35792566Y-13829423D01*
X35783925Y-13816850D01*
X35783445Y-13815932D01*
X35782380Y-13813713D01*
X35781081Y-13811679D01*
X35780526Y-13810740D01*
X35774395Y-13796774D01*
X35737516Y-13748712D01*
X35729732Y-13737998D01*
X35704076Y-13700669D01*
X35704075Y-13700668D01*
X35695436Y-13688098D01*
X35651650Y-13649086D01*
X35641056Y-13639085D01*
X35024491Y-13022521D01*
X35012738Y-13009939D01*
X34977561Y-12969615D01*
X34927995Y-12934779D01*
X34917380Y-12926896D01*
X34901472Y-12914422D01*
X34869718Y-12889524D01*
X34855822Y-12883250D01*
X34854917Y-12882702D01*
X34852871Y-12881366D01*
X34850677Y-12880284D01*
X34849744Y-12879784D01*
X34837261Y-12871010D01*
X34817804Y-12863424D01*
X34780825Y-12849006D01*
X34768615Y-12843874D01*
X34713427Y-12818955D01*
X34698433Y-12816176D01*
X34697410Y-12815855D01*
X34695115Y-12815049D01*
X34692750Y-12814527D01*
X34691700Y-12814257D01*
X34677491Y-12808718D01*
X34617424Y-12800810D01*
X34604362Y-12798741D01*
X34544814Y-12787704D01*
X34529584Y-12788582D01*
X34529581Y-12788582D01*
X34486268Y-12791080D01*
X34471703Y-12791500D01*
X29332564Y-12791500D01*
X29235745Y-12772242D01*
X29153666Y-12717398D01*
X29098822Y-12635319D01*
X29079564Y-12538500D01*
X29090943Y-12463476D01*
X29106607Y-12413032D01*
X29136898Y-12184485D01*
X29128249Y-11954101D01*
X29080907Y-11728468D01*
X29076973Y-11718506D01*
X29076971Y-11718500D01*
X29000160Y-11524005D01*
X28996224Y-11514038D01*
X28933915Y-11411355D01*
X28882178Y-11326096D01*
X28882177Y-11326094D01*
X28876623Y-11316942D01*
X28725523Y-11142814D01*
X28609845Y-11047964D01*
X28547187Y-10971683D01*
X28518490Y-10877230D01*
X28528123Y-10778986D01*
X28574619Y-10691906D01*
X28612913Y-10656552D01*
X28611765Y-10655125D01*
X28636765Y-10635024D01*
X28788002Y-10490750D01*
X28802157Y-10474750D01*
X28864287Y-10391245D01*
X31792001Y-10391245D01*
X31792740Y-10404888D01*
X31797035Y-10444436D01*
X31804318Y-10475064D01*
X31843501Y-10579585D01*
X31860637Y-10610885D01*
X31926285Y-10698479D01*
X31951521Y-10723715D01*
X32039115Y-10789363D01*
X32070415Y-10806499D01*
X32174936Y-10845682D01*
X32205566Y-10852966D01*
X32245095Y-10857260D01*
X32258764Y-10858000D01*
X33221082Y-10858000D01*
X33241866Y-10853866D01*
X33246000Y-10833082D01*
X33246000Y-10833081D01*
X33754000Y-10833081D01*
X33758134Y-10853865D01*
X33778918Y-10857999D01*
X34741245Y-10857999D01*
X34754888Y-10857260D01*
X34794436Y-10852965D01*
X34825064Y-10845682D01*
X34929585Y-10806499D01*
X34960885Y-10789363D01*
X35048479Y-10723715D01*
X35073715Y-10698479D01*
X35139363Y-10610885D01*
X35156499Y-10579585D01*
X35195682Y-10475064D01*
X35202966Y-10444434D01*
X35207260Y-10404905D01*
X35208000Y-10391236D01*
X35208000Y-9778918D01*
X35203866Y-9758134D01*
X35183082Y-9754000D01*
X33778918Y-9754000D01*
X33758134Y-9758134D01*
X33754000Y-9778918D01*
X33754000Y-10833081D01*
X33246000Y-10833081D01*
X33246000Y-9778918D01*
X33241866Y-9758134D01*
X33221082Y-9754000D01*
X31816919Y-9754000D01*
X31796135Y-9758134D01*
X31792001Y-9778918D01*
X31792001Y-10391245D01*
X28864287Y-10391245D01*
X28926928Y-10307053D01*
X28938184Y-10288898D01*
X29032922Y-10102563D01*
X29040951Y-10082792D01*
X29102939Y-9883154D01*
X29107524Y-9862303D01*
X29107967Y-9858963D01*
X29106599Y-9837814D01*
X29096156Y-9834259D01*
X25765611Y-9834259D01*
X25744827Y-9838393D01*
X25743285Y-9846145D01*
X25743382Y-9847073D01*
X25767374Y-9961422D01*
X25773508Y-9981866D01*
X25850291Y-10176297D01*
X25859783Y-10195415D01*
X25968223Y-10374119D01*
X25980807Y-10391375D01*
X26117804Y-10549251D01*
X26133118Y-10564143D01*
X26240185Y-10651933D01*
X26302843Y-10728214D01*
X26331540Y-10822666D01*
X26321907Y-10920911D01*
X26275410Y-11007990D01*
X26236559Y-11043310D01*
X26237919Y-11045002D01*
X26229564Y-11051720D01*
X26220681Y-11057700D01*
X26053865Y-11216835D01*
X25916246Y-11401801D01*
X25811760Y-11607310D01*
X25743393Y-11827486D01*
X25713102Y-12056033D01*
X25721751Y-12286417D01*
X25723952Y-12296907D01*
X25758901Y-12463473D01*
X25769093Y-12512050D01*
X25773027Y-12522012D01*
X25773029Y-12522018D01*
X25820713Y-12642760D01*
X25853776Y-12726480D01*
X25859332Y-12735636D01*
X25859333Y-12735638D01*
X25958424Y-12898934D01*
X25973377Y-12923576D01*
X26124477Y-13097704D01*
X26132758Y-13104494D01*
X26132760Y-13104496D01*
X26239756Y-13192227D01*
X26302414Y-13268508D01*
X26331111Y-13362961D01*
X26321478Y-13461206D01*
X26274982Y-13548285D01*
X26237870Y-13585042D01*
X26229568Y-13591717D01*
X26220681Y-13597700D01*
X26053865Y-13756835D01*
X25916246Y-13941801D01*
X25888037Y-13997284D01*
X25824259Y-14122727D01*
X25811760Y-14147310D01*
X25743393Y-14367486D01*
X25713102Y-14596033D01*
X25713504Y-14606737D01*
X25715795Y-14667769D01*
X25700182Y-14765242D01*
X25641871Y-14856158D01*
X22814697Y-17683333D01*
X22732618Y-17738177D01*
X22635799Y-17757435D01*
X11580308Y-17757435D01*
X11483489Y-17738177D01*
X11401410Y-17683333D01*
X11346566Y-17601254D01*
X11327308Y-17504435D01*
X11329501Y-17471193D01*
X11333403Y-17441759D01*
X11356898Y-17264485D01*
X11348249Y-17034101D01*
X11300907Y-16808468D01*
X11296973Y-16798506D01*
X11296971Y-16798500D01*
X11238569Y-16650619D01*
X11216224Y-16594038D01*
X11164550Y-16508881D01*
X11102178Y-16406096D01*
X11102177Y-16406094D01*
X11096623Y-16396942D01*
X10945523Y-16222814D01*
X10889280Y-16176697D01*
X10830244Y-16128291D01*
X10767586Y-16052010D01*
X10738889Y-15957557D01*
X10748522Y-15859312D01*
X10795018Y-15772233D01*
X10832130Y-15735476D01*
X10840432Y-15728801D01*
X10849319Y-15722818D01*
X11016135Y-15563683D01*
X11153754Y-15378717D01*
X11210818Y-15266480D01*
X11253384Y-15182760D01*
X11253386Y-15182755D01*
X11258240Y-15173208D01*
X11303633Y-15027021D01*
X11323431Y-14963261D01*
X11323432Y-14963259D01*
X11326607Y-14953032D01*
X11351496Y-14765242D01*
X11355491Y-14735102D01*
X11355491Y-14735100D01*
X11356898Y-14724485D01*
X11348249Y-14494101D01*
X11333783Y-14425157D01*
X11303108Y-14278956D01*
X11303107Y-14278951D01*
X11300907Y-14268468D01*
X11296973Y-14258506D01*
X11296971Y-14258500D01*
X11220160Y-14064005D01*
X11216224Y-14054038D01*
X11153915Y-13951355D01*
X11102178Y-13866096D01*
X11102177Y-13866094D01*
X11096623Y-13856942D01*
X10945523Y-13682814D01*
X10830244Y-13588291D01*
X10767586Y-13512010D01*
X10738889Y-13417557D01*
X10748522Y-13319312D01*
X10795018Y-13232233D01*
X10832130Y-13195476D01*
X10840432Y-13188801D01*
X10849319Y-13182818D01*
X11016135Y-13023683D01*
X11153754Y-12838717D01*
X11222097Y-12704296D01*
X11253384Y-12642760D01*
X11253386Y-12642755D01*
X11258240Y-12633208D01*
X11326607Y-12413032D01*
X11356898Y-12184485D01*
X11348249Y-11954101D01*
X11300907Y-11728468D01*
X11296973Y-11718506D01*
X11296971Y-11718500D01*
X11220160Y-11524005D01*
X11216224Y-11514038D01*
X11153915Y-11411355D01*
X11102178Y-11326096D01*
X11102177Y-11326094D01*
X11096623Y-11316942D01*
X10945523Y-11142814D01*
X10829845Y-11047964D01*
X10767187Y-10971683D01*
X10738490Y-10877230D01*
X10748123Y-10778986D01*
X10794619Y-10691906D01*
X10832913Y-10656552D01*
X10831765Y-10655125D01*
X10856765Y-10635024D01*
X11008002Y-10490750D01*
X11022157Y-10474750D01*
X11146928Y-10307053D01*
X11158184Y-10288898D01*
X11252922Y-10102563D01*
X11260951Y-10082792D01*
X11322939Y-9883154D01*
X11327524Y-9862303D01*
X11327967Y-9858963D01*
X11326599Y-9837814D01*
X11316156Y-9834259D01*
X7985611Y-9834259D01*
X7964827Y-9838393D01*
X7963285Y-9846145D01*
X7963382Y-9847073D01*
X7987374Y-9961422D01*
X7993508Y-9981866D01*
X8070291Y-10176297D01*
X8079783Y-10195415D01*
X8188223Y-10374119D01*
X8200807Y-10391375D01*
X8337804Y-10549251D01*
X8353118Y-10564143D01*
X8460185Y-10651933D01*
X8522843Y-10728214D01*
X8551540Y-10822666D01*
X8541907Y-10920911D01*
X8495410Y-11007990D01*
X8456559Y-11043310D01*
X8457919Y-11045002D01*
X8449564Y-11051720D01*
X8440681Y-11057700D01*
X8432932Y-11065092D01*
X8432926Y-11065097D01*
X8310838Y-11181563D01*
X8227490Y-11234458D01*
X8136205Y-11251500D01*
X5148276Y-11251500D01*
X5051457Y-11232242D01*
X4969378Y-11177398D01*
X4951641Y-11156667D01*
X4951623Y-11156683D01*
X4857282Y-11047964D01*
X4800523Y-10982555D01*
X4735144Y-10928947D01*
X4689426Y-10891461D01*
X4622245Y-10836376D01*
X4491162Y-10761759D01*
X4431199Y-10727626D01*
X4431196Y-10727625D01*
X4421886Y-10722325D01*
X4411814Y-10718669D01*
X4215251Y-10647320D01*
X4215247Y-10647319D01*
X4205175Y-10643663D01*
X3978308Y-10602639D01*
X3969975Y-10602246D01*
X3957151Y-10601641D01*
X3957141Y-10601641D01*
X3954156Y-10601500D01*
X3092110Y-10601500D01*
X3086784Y-10601952D01*
X3086782Y-10601952D01*
X2930955Y-10615174D01*
X2930953Y-10615174D01*
X2920280Y-10616080D01*
X2909914Y-10618770D01*
X2909911Y-10618771D01*
X2769846Y-10655125D01*
X2697128Y-10673999D01*
X2687362Y-10678398D01*
X2687357Y-10678400D01*
X2576774Y-10728214D01*
X2486925Y-10768688D01*
X2478039Y-10774671D01*
X2478038Y-10774671D01*
X2471629Y-10778986D01*
X2295681Y-10897441D01*
X2128865Y-11056576D01*
X1991246Y-11241542D01*
X1952911Y-11316942D01*
X1904909Y-11411355D01*
X1886760Y-11447051D01*
X1818393Y-11667227D01*
X1788102Y-11895774D01*
X1796751Y-12126158D01*
X1798952Y-12136648D01*
X1828130Y-12275709D01*
X1844093Y-12351791D01*
X1848027Y-12361753D01*
X1848029Y-12361759D01*
X1903241Y-12501562D01*
X1928776Y-12566221D01*
X1934332Y-12575377D01*
X1934333Y-12575379D01*
X2026024Y-12726480D01*
X2048377Y-12763317D01*
X2199477Y-12937445D01*
X2207758Y-12944235D01*
X2207760Y-12944237D01*
X2314756Y-13031968D01*
X2377414Y-13108249D01*
X2406111Y-13202702D01*
X2396478Y-13300947D01*
X2349982Y-13388026D01*
X2312870Y-13424783D01*
X2304568Y-13431458D01*
X2295681Y-13437441D01*
X2128865Y-13596576D01*
X1991246Y-13781542D01*
X1952911Y-13856942D01*
X1893113Y-13974556D01*
X1886760Y-13987051D01*
X1818393Y-14207227D01*
X1788102Y-14435774D01*
X1796751Y-14666158D01*
X1798952Y-14676648D01*
X1836617Y-14856158D01*
X1844093Y-14891791D01*
X1848027Y-14901753D01*
X1848029Y-14901759D01*
X1848196Y-14902181D01*
X1928776Y-15106221D01*
X1934332Y-15115377D01*
X1934333Y-15115379D01*
X2020959Y-15258134D01*
X2048377Y-15303317D01*
X2199477Y-15477445D01*
X2207758Y-15484235D01*
X2207760Y-15484237D01*
X2314756Y-15571968D01*
X2377414Y-15648249D01*
X2406111Y-15742702D01*
X2396478Y-15840947D01*
X2349982Y-15928026D01*
X2312870Y-15964783D01*
X2304568Y-15971458D01*
X2295681Y-15977441D01*
X2128865Y-16136576D01*
X1991246Y-16321542D01*
X1886760Y-16527051D01*
X1818393Y-16747227D01*
X1788102Y-16975774D01*
X1796751Y-17206158D01*
X1798952Y-17216648D01*
X1838872Y-17406906D01*
X1844093Y-17431791D01*
X1848027Y-17441753D01*
X1848029Y-17441759D01*
X1873465Y-17506166D01*
X1928776Y-17646221D01*
X1934332Y-17655377D01*
X1934333Y-17655379D01*
X2031581Y-17815638D01*
X2048377Y-17843317D01*
X2199477Y-18017445D01*
X2207758Y-18024235D01*
X2207760Y-18024237D01*
X2314756Y-18111968D01*
X2377414Y-18188249D01*
X2406111Y-18282702D01*
X2396478Y-18380947D01*
X2349982Y-18468026D01*
X2312870Y-18504783D01*
X2304568Y-18511458D01*
X2295681Y-18517441D01*
X2128865Y-18676576D01*
X1991246Y-18861542D01*
X1952911Y-18936942D01*
X1902758Y-19035586D01*
X1886760Y-19067051D01*
X1857628Y-19160870D01*
X1828258Y-19255458D01*
X1818393Y-19287227D01*
X1788102Y-19515774D01*
X508500Y-19515774D01*
X508500Y-6976033D01*
X7933102Y-6976033D01*
X7941751Y-7206417D01*
X7943952Y-7216907D01*
X7953624Y-7263002D01*
X7989093Y-7432050D01*
X7993027Y-7442012D01*
X7993029Y-7442018D01*
X8036941Y-7553208D01*
X8073776Y-7646480D01*
X8079332Y-7655636D01*
X8079333Y-7655638D01*
X8157562Y-7784555D01*
X8193377Y-7843576D01*
X8344477Y-8017704D01*
X8439266Y-8095426D01*
X8460155Y-8112554D01*
X8522813Y-8188835D01*
X8551510Y-8283288D01*
X8541877Y-8381532D01*
X8495381Y-8468612D01*
X8457087Y-8503966D01*
X8458235Y-8505393D01*
X8433235Y-8525494D01*
X8281998Y-8669768D01*
X8267843Y-8685768D01*
X8143072Y-8853465D01*
X8131816Y-8871620D01*
X8037078Y-9057955D01*
X8029049Y-9077726D01*
X7967061Y-9277364D01*
X7962476Y-9298215D01*
X7962033Y-9301555D01*
X7963401Y-9322704D01*
X7973844Y-9326259D01*
X11304389Y-9326259D01*
X11325173Y-9322125D01*
X11326715Y-9314373D01*
X11326618Y-9313445D01*
X11302626Y-9199096D01*
X11296492Y-9178652D01*
X11219709Y-8984221D01*
X11210217Y-8965103D01*
X11101777Y-8786399D01*
X11089193Y-8769143D01*
X10952196Y-8611267D01*
X10936882Y-8596375D01*
X10829815Y-8508585D01*
X10767157Y-8432304D01*
X10738460Y-8337852D01*
X10748093Y-8239607D01*
X10794590Y-8152528D01*
X10833441Y-8117208D01*
X10832081Y-8115516D01*
X10840436Y-8108798D01*
X10849319Y-8102818D01*
X10869440Y-8083624D01*
X11008386Y-7951075D01*
X11016135Y-7943683D01*
X11153754Y-7758717D01*
X11258240Y-7553208D01*
X11326607Y-7333032D01*
X11356898Y-7104485D01*
X11352076Y-6976033D01*
X25713102Y-6976033D01*
X25721751Y-7206417D01*
X25723952Y-7216907D01*
X25733624Y-7263002D01*
X25769093Y-7432050D01*
X25773027Y-7442012D01*
X25773029Y-7442018D01*
X25816941Y-7553208D01*
X25853776Y-7646480D01*
X25859332Y-7655636D01*
X25859333Y-7655638D01*
X25937562Y-7784555D01*
X25973377Y-7843576D01*
X26124477Y-8017704D01*
X26219266Y-8095426D01*
X26240155Y-8112554D01*
X26302813Y-8188835D01*
X26331510Y-8283288D01*
X26321877Y-8381532D01*
X26275381Y-8468612D01*
X26237087Y-8503966D01*
X26238235Y-8505393D01*
X26213235Y-8525494D01*
X26061998Y-8669768D01*
X26047843Y-8685768D01*
X25923072Y-8853465D01*
X25911816Y-8871620D01*
X25817078Y-9057955D01*
X25809049Y-9077726D01*
X25747061Y-9277364D01*
X25742476Y-9298215D01*
X25742033Y-9301555D01*
X25743401Y-9322704D01*
X25753844Y-9326259D01*
X29084389Y-9326259D01*
X29105173Y-9322125D01*
X29106715Y-9314373D01*
X29106618Y-9313445D01*
X29082626Y-9199096D01*
X29076492Y-9178652D01*
X28999709Y-8984221D01*
X28990217Y-8965103D01*
X28881777Y-8786399D01*
X28869193Y-8769143D01*
X28732196Y-8611267D01*
X28716882Y-8596375D01*
X28609815Y-8508585D01*
X28547157Y-8432304D01*
X28518460Y-8337852D01*
X28528093Y-8239607D01*
X28574590Y-8152528D01*
X28613441Y-8117208D01*
X28612081Y-8115516D01*
X28620436Y-8108798D01*
X28629319Y-8102818D01*
X28649440Y-8083624D01*
X28788386Y-7951075D01*
X28796135Y-7943683D01*
X28865289Y-7850737D01*
X28938534Y-7784555D01*
X29031530Y-7751441D01*
X29068270Y-7748759D01*
X31895959Y-7748759D01*
X31992778Y-7768017D01*
X32074857Y-7822861D01*
X32129701Y-7904940D01*
X32148959Y-8001759D01*
X32129701Y-8098578D01*
X32074857Y-8180657D01*
X32047689Y-8204212D01*
X31951518Y-8276288D01*
X31926285Y-8301521D01*
X31860637Y-8389115D01*
X31843501Y-8420415D01*
X31804318Y-8524936D01*
X31797034Y-8555566D01*
X31792740Y-8595095D01*
X31792000Y-8608764D01*
X31792000Y-9221082D01*
X31796134Y-9241866D01*
X31816918Y-9246000D01*
X35183081Y-9246000D01*
X35203865Y-9241866D01*
X35207999Y-9221082D01*
X35207999Y-8608755D01*
X35207260Y-8595112D01*
X35202965Y-8555564D01*
X35195682Y-8524936D01*
X35156499Y-8420415D01*
X35139363Y-8389115D01*
X35073715Y-8301521D01*
X35048479Y-8276285D01*
X34946462Y-8199828D01*
X34948080Y-8197670D01*
X34892933Y-8151476D01*
X34847277Y-8063953D01*
X34838589Y-7965621D01*
X34868194Y-7871449D01*
X34887120Y-7841939D01*
X35008754Y-7678458D01*
X35113240Y-7472949D01*
X35181607Y-7252773D01*
X35211898Y-7024226D01*
X35203249Y-6793842D01*
X35193523Y-6747486D01*
X35158108Y-6578697D01*
X35158107Y-6578692D01*
X35155907Y-6568209D01*
X35151973Y-6558247D01*
X35151971Y-6558241D01*
X35075160Y-6363746D01*
X35071224Y-6353779D01*
X35056235Y-6329077D01*
X34957178Y-6165837D01*
X34957177Y-6165835D01*
X34951623Y-6156683D01*
X34800523Y-5982555D01*
X34779165Y-5965042D01*
X34696719Y-5897441D01*
X34622245Y-5836376D01*
X34495603Y-5764287D01*
X34431199Y-5727626D01*
X34431196Y-5727625D01*
X34421886Y-5722325D01*
X34337160Y-5691571D01*
X34215251Y-5647320D01*
X34215247Y-5647319D01*
X34205175Y-5643663D01*
X33978308Y-5602639D01*
X33969975Y-5602246D01*
X33957151Y-5601641D01*
X33957141Y-5601641D01*
X33954156Y-5601500D01*
X33092110Y-5601500D01*
X33086784Y-5601952D01*
X33086782Y-5601952D01*
X32930955Y-5615174D01*
X32930953Y-5615174D01*
X32920280Y-5616080D01*
X32909914Y-5618770D01*
X32909911Y-5618771D01*
X32795340Y-5648508D01*
X32697128Y-5673999D01*
X32687362Y-5678398D01*
X32687357Y-5678400D01*
X32544037Y-5742961D01*
X32486925Y-5768688D01*
X32295681Y-5897441D01*
X32287933Y-5904832D01*
X32287932Y-5904833D01*
X32263348Y-5928285D01*
X32128865Y-6056576D01*
X31999996Y-6229782D01*
X31926751Y-6295963D01*
X31833755Y-6329077D01*
X31797015Y-6331759D01*
X29073276Y-6331759D01*
X28976457Y-6312501D01*
X28894378Y-6257657D01*
X28876641Y-6236926D01*
X28876623Y-6236942D01*
X28806978Y-6156683D01*
X28725523Y-6062814D01*
X28637506Y-5990644D01*
X28610244Y-5968291D01*
X28547586Y-5892010D01*
X28518889Y-5797557D01*
X28528522Y-5699312D01*
X28575018Y-5612233D01*
X28612130Y-5575476D01*
X28620432Y-5568801D01*
X28629319Y-5562818D01*
X28796135Y-5403683D01*
X28933754Y-5218717D01*
X29038240Y-5013208D01*
X29106607Y-4793032D01*
X29136898Y-4564485D01*
X29128249Y-4334101D01*
X29108305Y-4239048D01*
X29083108Y-4118956D01*
X29083107Y-4118951D01*
X29080907Y-4108468D01*
X29076973Y-4098506D01*
X29076971Y-4098500D01*
X29018569Y-3950619D01*
X28996224Y-3894038D01*
X28987978Y-3880448D01*
X28882178Y-3706096D01*
X28882177Y-3706094D01*
X28876623Y-3696942D01*
X28725523Y-3522814D01*
X28697700Y-3500000D01*
X28555528Y-3383427D01*
X28547245Y-3376635D01*
X28438845Y-3314930D01*
X28356199Y-3267885D01*
X28356196Y-3267884D01*
X28346886Y-3262584D01*
X28336814Y-3258928D01*
X28140251Y-3187579D01*
X28140247Y-3187578D01*
X28130175Y-3183922D01*
X27903308Y-3142898D01*
X27894975Y-3142505D01*
X27882151Y-3141900D01*
X27882141Y-3141900D01*
X27879156Y-3141759D01*
X27017110Y-3141759D01*
X27011784Y-3142211D01*
X27011782Y-3142211D01*
X26855955Y-3155433D01*
X26855953Y-3155433D01*
X26845280Y-3156339D01*
X26834914Y-3159029D01*
X26834911Y-3159030D01*
X26663061Y-3203634D01*
X26622128Y-3214258D01*
X26612362Y-3218657D01*
X26612357Y-3218659D01*
X26459718Y-3287418D01*
X26411925Y-3308947D01*
X26220681Y-3437700D01*
X26212933Y-3445091D01*
X26212932Y-3445092D01*
X26155374Y-3500000D01*
X26053865Y-3596835D01*
X25916246Y-3781801D01*
X25911389Y-3791355D01*
X25845803Y-3920353D01*
X25811760Y-3987310D01*
X25743393Y-4207486D01*
X25713102Y-4436033D01*
X25721751Y-4666417D01*
X25769093Y-4892050D01*
X25773027Y-4902012D01*
X25773029Y-4902018D01*
X25816941Y-5013208D01*
X25853776Y-5106480D01*
X25859332Y-5115636D01*
X25859333Y-5115638D01*
X25921883Y-5218717D01*
X25973377Y-5303576D01*
X26124477Y-5477704D01*
X26132758Y-5484494D01*
X26132760Y-5484496D01*
X26239756Y-5572227D01*
X26302414Y-5648508D01*
X26331111Y-5742961D01*
X26321478Y-5841206D01*
X26274982Y-5928285D01*
X26237870Y-5965042D01*
X26229568Y-5971717D01*
X26220681Y-5977700D01*
X26053865Y-6136835D01*
X25916246Y-6321801D01*
X25811760Y-6527310D01*
X25743393Y-6747486D01*
X25713102Y-6976033D01*
X11352076Y-6976033D01*
X11348249Y-6874101D01*
X11300907Y-6648468D01*
X11296973Y-6638506D01*
X11296971Y-6638500D01*
X11220160Y-6444005D01*
X11216224Y-6434038D01*
X11161965Y-6344621D01*
X11102178Y-6246096D01*
X11102177Y-6246094D01*
X11096623Y-6236942D01*
X10945523Y-6062814D01*
X10857506Y-5990644D01*
X10830244Y-5968291D01*
X10767586Y-5892010D01*
X10738889Y-5797557D01*
X10748522Y-5699312D01*
X10795018Y-5612233D01*
X10832130Y-5575476D01*
X10840432Y-5568801D01*
X10849319Y-5562818D01*
X11016135Y-5403683D01*
X11153754Y-5218717D01*
X11258240Y-5013208D01*
X11326607Y-4793032D01*
X11356898Y-4564485D01*
X11348249Y-4334101D01*
X11328305Y-4239048D01*
X11303108Y-4118956D01*
X11303107Y-4118951D01*
X11300907Y-4108468D01*
X11296973Y-4098506D01*
X11296971Y-4098500D01*
X11238569Y-3950619D01*
X11216224Y-3894038D01*
X11207978Y-3880448D01*
X11102178Y-3706096D01*
X11102177Y-3706094D01*
X11096623Y-3696942D01*
X10945523Y-3522814D01*
X10917700Y-3500000D01*
X10775528Y-3383427D01*
X10767245Y-3376635D01*
X10658845Y-3314930D01*
X10576199Y-3267885D01*
X10576196Y-3267884D01*
X10566886Y-3262584D01*
X10556814Y-3258928D01*
X10360251Y-3187579D01*
X10360247Y-3187578D01*
X10350175Y-3183922D01*
X10123308Y-3142898D01*
X10114975Y-3142505D01*
X10102151Y-3141900D01*
X10102141Y-3141900D01*
X10099156Y-3141759D01*
X9237110Y-3141759D01*
X9231784Y-3142211D01*
X9231782Y-3142211D01*
X9075955Y-3155433D01*
X9075953Y-3155433D01*
X9065280Y-3156339D01*
X9054914Y-3159029D01*
X9054911Y-3159030D01*
X8883061Y-3203634D01*
X8842128Y-3214258D01*
X8832362Y-3218657D01*
X8832357Y-3218659D01*
X8679718Y-3287418D01*
X8631925Y-3308947D01*
X8440681Y-3437700D01*
X8432933Y-3445091D01*
X8432932Y-3445092D01*
X8375374Y-3500000D01*
X8273865Y-3596835D01*
X8136246Y-3781801D01*
X8131389Y-3791355D01*
X8065803Y-3920353D01*
X8031760Y-3987310D01*
X7963393Y-4207486D01*
X7933102Y-4436033D01*
X7941751Y-4666417D01*
X7989093Y-4892050D01*
X7993027Y-4902012D01*
X7993029Y-4902018D01*
X8036941Y-5013208D01*
X8073776Y-5106480D01*
X8079332Y-5115636D01*
X8079333Y-5115638D01*
X8141883Y-5218717D01*
X8193377Y-5303576D01*
X8344477Y-5477704D01*
X8352758Y-5484494D01*
X8352760Y-5484496D01*
X8459756Y-5572227D01*
X8522414Y-5648508D01*
X8551111Y-5742961D01*
X8541478Y-5841206D01*
X8494982Y-5928285D01*
X8457870Y-5965042D01*
X8449568Y-5971717D01*
X8440681Y-5977700D01*
X8273865Y-6136835D01*
X8136246Y-6321801D01*
X8031760Y-6527310D01*
X7963393Y-6747486D01*
X7933102Y-6976033D01*
X508500Y-6976033D01*
X508500Y-3485570D01*
X3466625Y-3485570D01*
X3483502Y-3686562D01*
X3539098Y-3880448D01*
X3544752Y-3891449D01*
X3544753Y-3891452D01*
X3585197Y-3970145D01*
X3631295Y-4059842D01*
X3638980Y-4069538D01*
X3748316Y-4207486D01*
X3756580Y-4217913D01*
X3910181Y-4348638D01*
X3963026Y-4378172D01*
X4075439Y-4440998D01*
X4075443Y-4441000D01*
X4086249Y-4447039D01*
X4278076Y-4509367D01*
X4432942Y-4527834D01*
X4466062Y-4531783D01*
X4466063Y-4531783D01*
X4478357Y-4533249D01*
X4490703Y-4532299D01*
X4497410Y-4531783D01*
X4531951Y-4529125D01*
X4667116Y-4518725D01*
X4667117Y-4518725D01*
X4679461Y-4517775D01*
X4691383Y-4514446D01*
X4691385Y-4514446D01*
X4861810Y-4466862D01*
X4861809Y-4466862D01*
X4873730Y-4463534D01*
X5053764Y-4372593D01*
X5116458Y-4323611D01*
X5202955Y-4256032D01*
X5202957Y-4256030D01*
X5212705Y-4248414D01*
X5232111Y-4225933D01*
X5336413Y-4105098D01*
X5336414Y-4105097D01*
X5344500Y-4095729D01*
X5359379Y-4069538D01*
X5406090Y-3987310D01*
X5444127Y-3920353D01*
X5449566Y-3904005D01*
X5503888Y-3740704D01*
X5507793Y-3728965D01*
X5523400Y-3605429D01*
X5532187Y-3535869D01*
X5533073Y-3528856D01*
X5533476Y-3500000D01*
X5513794Y-3299263D01*
X5509527Y-3285128D01*
X5459071Y-3118013D01*
X5459070Y-3118011D01*
X5455496Y-3106173D01*
X5360804Y-2928083D01*
X5233324Y-2771777D01*
X5221034Y-2761610D01*
X5087451Y-2651101D01*
X5087449Y-2651100D01*
X5077912Y-2643210D01*
X4900488Y-2547277D01*
X4888675Y-2543620D01*
X4888672Y-2543619D01*
X4719626Y-2491290D01*
X4707809Y-2487632D01*
X4507215Y-2466549D01*
X4494897Y-2467670D01*
X4494892Y-2467670D01*
X4318669Y-2483708D01*
X4318664Y-2483709D01*
X4306346Y-2484830D01*
X4112853Y-2541778D01*
X3934107Y-2635224D01*
X3776915Y-2761610D01*
X3647265Y-2916120D01*
X3550096Y-3092870D01*
X3546356Y-3104659D01*
X3546355Y-3104662D01*
X3520052Y-3187579D01*
X3489108Y-3285128D01*
X3466625Y-3485570D01*
X508500Y-3485570D01*
X508500Y-761500D01*
X527758Y-664681D01*
X582602Y-582602D01*
X664681Y-527758D01*
X761500Y-508500D01*
X36238500Y-508500D01*
X36335319Y-527758D01*
G37*
%TD.AperFunction*%
%TD*%
%TA.AperFunction,NonConductor*%
G36*
X7992999Y-12687758D02*
G01*
X8075078Y-12742602D01*
X8112473Y-12790251D01*
X8161361Y-12870816D01*
X8193377Y-12923576D01*
X8344477Y-13097704D01*
X8352758Y-13104494D01*
X8352760Y-13104496D01*
X8459756Y-13192227D01*
X8522414Y-13268508D01*
X8551111Y-13362961D01*
X8541478Y-13461206D01*
X8494982Y-13548285D01*
X8457870Y-13585042D01*
X8449568Y-13591717D01*
X8440681Y-13597700D01*
X8432930Y-13605094D01*
X8432924Y-13605099D01*
X8310838Y-13721563D01*
X8227490Y-13774458D01*
X8136205Y-13791500D01*
X5148276Y-13791500D01*
X5051457Y-13772242D01*
X4969378Y-13717398D01*
X4951641Y-13696667D01*
X4951623Y-13696683D01*
X4858340Y-13589184D01*
X4800523Y-13522555D01*
X4787663Y-13512010D01*
X4685244Y-13428032D01*
X4622586Y-13351751D01*
X4593889Y-13257298D01*
X4603522Y-13159053D01*
X4650018Y-13071974D01*
X4687130Y-13035217D01*
X4695432Y-13028542D01*
X4704319Y-13022559D01*
X4871135Y-12863424D01*
X4940289Y-12770478D01*
X5013534Y-12704296D01*
X5106530Y-12671182D01*
X5143270Y-12668500D01*
X7896180Y-12668500D01*
X7992999Y-12687758D01*
G37*
%TD.AperFunction*%
%TA.AperFunction,NonConductor*%
G36*
X7992999Y-15227758D02*
G01*
X8075078Y-15282602D01*
X8112473Y-15330251D01*
X8151661Y-15394830D01*
X8193377Y-15463576D01*
X8344477Y-15637704D01*
X8352758Y-15644494D01*
X8352760Y-15644496D01*
X8459756Y-15732227D01*
X8522414Y-15808508D01*
X8551111Y-15902961D01*
X8541478Y-16001206D01*
X8494982Y-16088285D01*
X8457870Y-16125042D01*
X8449568Y-16131717D01*
X8440681Y-16137700D01*
X8273865Y-16296835D01*
X8241486Y-16340353D01*
X8168243Y-16406534D01*
X8075248Y-16439649D01*
X8038506Y-16442331D01*
X5218827Y-16442331D01*
X5122008Y-16423073D01*
X5039929Y-16368229D01*
X5002535Y-16320581D01*
X4957184Y-16245845D01*
X4957176Y-16245834D01*
X4951623Y-16236683D01*
X4800523Y-16062555D01*
X4787663Y-16052010D01*
X4685244Y-15968032D01*
X4622586Y-15891751D01*
X4593889Y-15797298D01*
X4603522Y-15699053D01*
X4650018Y-15611974D01*
X4687130Y-15575217D01*
X4695432Y-15568542D01*
X4704319Y-15562559D01*
X4871135Y-15403424D01*
X4940289Y-15310478D01*
X5013534Y-15244296D01*
X5106530Y-15211182D01*
X5143270Y-15208500D01*
X7896180Y-15208500D01*
X7992999Y-15227758D01*
G37*
%TD.AperFunction*%
%TA.AperFunction,NonConductor*%
G36*
X6624722Y-17878589D02*
G01*
X6706801Y-17933433D01*
X6761645Y-18015512D01*
X6780903Y-18112331D01*
X6761645Y-18209150D01*
X6706801Y-18291229D01*
X6200632Y-18797398D01*
X6118553Y-18852242D01*
X6021734Y-18871500D01*
X5148276Y-18871500D01*
X5051457Y-18852242D01*
X4969378Y-18797398D01*
X4951641Y-18776667D01*
X4951623Y-18776683D01*
X4858340Y-18669184D01*
X4800523Y-18602555D01*
X4787663Y-18592010D01*
X4685244Y-18508032D01*
X4622586Y-18431751D01*
X4593889Y-18337298D01*
X4603522Y-18239053D01*
X4650018Y-18151974D01*
X4687130Y-18115217D01*
X4695432Y-18108542D01*
X4704319Y-18102559D01*
X4717274Y-18090201D01*
X4863381Y-17950821D01*
X4871135Y-17943424D01*
X4872002Y-17942259D01*
X4947384Y-17884937D01*
X5042846Y-17859803D01*
X5058293Y-17859331D01*
X6527903Y-17859331D01*
X6624722Y-17878589D01*
G37*
%TD.AperFunction*%
%TA.AperFunction,NonConductor*%
G36*
X31794657Y-23153186D02*
G01*
X31876736Y-23208030D01*
X31933152Y-23293997D01*
X31953776Y-23346221D01*
X31959332Y-23355377D01*
X31959333Y-23355379D01*
X32067822Y-23534163D01*
X32073377Y-23543317D01*
X32224477Y-23717445D01*
X32232758Y-23724235D01*
X32232760Y-23724237D01*
X32339756Y-23811968D01*
X32402414Y-23888249D01*
X32431111Y-23982702D01*
X32421478Y-24080947D01*
X32374982Y-24168026D01*
X32337870Y-24204783D01*
X32329568Y-24211458D01*
X32320681Y-24217441D01*
X32153865Y-24376576D01*
X32016246Y-24561542D01*
X32011389Y-24571096D01*
X31917362Y-24756033D01*
X31911760Y-24767051D01*
X31843393Y-24987227D01*
X31841986Y-24997845D01*
X31814986Y-25201562D01*
X31813102Y-25215774D01*
X31821751Y-25446158D01*
X31823952Y-25456648D01*
X31858977Y-25623576D01*
X31869093Y-25671791D01*
X31873027Y-25681753D01*
X31873029Y-25681759D01*
X31918819Y-25797704D01*
X31953776Y-25886221D01*
X31959332Y-25895377D01*
X31959333Y-25895379D01*
X32067822Y-26074163D01*
X32073377Y-26083317D01*
X32224477Y-26257445D01*
X32232758Y-26264235D01*
X32232760Y-26264237D01*
X32339756Y-26351968D01*
X32402414Y-26428249D01*
X32431111Y-26522702D01*
X32421478Y-26620947D01*
X32374982Y-26708026D01*
X32337870Y-26744783D01*
X32329568Y-26751458D01*
X32320681Y-26757441D01*
X32153865Y-26916576D01*
X32147471Y-26925170D01*
X32084711Y-27009522D01*
X32011466Y-27075704D01*
X31918470Y-27108818D01*
X31881730Y-27111500D01*
X29309493Y-27111500D01*
X29212674Y-27092242D01*
X29130595Y-27037398D01*
X29074179Y-26951431D01*
X29000160Y-26764005D01*
X28996224Y-26754038D01*
X28940707Y-26662548D01*
X28882178Y-26566096D01*
X28882177Y-26566094D01*
X28876623Y-26556942D01*
X28725523Y-26382814D01*
X28610244Y-26288291D01*
X28547586Y-26212010D01*
X28518889Y-26117557D01*
X28528522Y-26019312D01*
X28575018Y-25932233D01*
X28612130Y-25895476D01*
X28620432Y-25888801D01*
X28629319Y-25882818D01*
X28796135Y-25723683D01*
X28802525Y-25715094D01*
X28802529Y-25715090D01*
X28875705Y-25616737D01*
X28948950Y-25550555D01*
X29048291Y-25516591D01*
X29074983Y-25513361D01*
X29089255Y-25507968D01*
X29090269Y-25507719D01*
X29092667Y-25507216D01*
X29094970Y-25506434D01*
X29095991Y-25506126D01*
X29111025Y-25503502D01*
X29124997Y-25497369D01*
X29124999Y-25497368D01*
X29166485Y-25479157D01*
X29178740Y-25474155D01*
X29235397Y-25452746D01*
X29247969Y-25444106D01*
X29248918Y-25443610D01*
X29251113Y-25442556D01*
X29253144Y-25441260D01*
X29254088Y-25440702D01*
X29268046Y-25434574D01*
X29316102Y-25397698D01*
X29326806Y-25389922D01*
X29376722Y-25355616D01*
X29415733Y-25311831D01*
X29425734Y-25301236D01*
X31518940Y-23208030D01*
X31601019Y-23153186D01*
X31697838Y-23133928D01*
X31794657Y-23153186D01*
G37*
%TD.AperFunction*%
%TA.AperFunction,NonConductor*%
G36*
X28958538Y-38484609D02*
G01*
X29035136Y-38537106D01*
X31746776Y-41248746D01*
X31801620Y-41330825D01*
X31820700Y-41418154D01*
X31821751Y-41446158D01*
X31823952Y-41456647D01*
X31823952Y-41456649D01*
X31858817Y-41622814D01*
X31869093Y-41671791D01*
X31873027Y-41681753D01*
X31873029Y-41681759D01*
X31915324Y-41788855D01*
X31953776Y-41886221D01*
X31959332Y-41895377D01*
X31959333Y-41895379D01*
X32019201Y-41994038D01*
X32073377Y-42083317D01*
X32224477Y-42257445D01*
X32232758Y-42264235D01*
X32232760Y-42264237D01*
X32339756Y-42351968D01*
X32402414Y-42428249D01*
X32431111Y-42522702D01*
X32421478Y-42620947D01*
X32374982Y-42708026D01*
X32337870Y-42744783D01*
X32329568Y-42751458D01*
X32320681Y-42757441D01*
X32153865Y-42916576D01*
X32147472Y-42925169D01*
X32121626Y-42959906D01*
X32048381Y-43026086D01*
X31955384Y-43059200D01*
X31856795Y-43054204D01*
X31767622Y-43011860D01*
X31739749Y-42987779D01*
X29194739Y-40442769D01*
X29139895Y-40360690D01*
X29120637Y-40263871D01*
X29122830Y-40230630D01*
X29135491Y-40135102D01*
X29135491Y-40135100D01*
X29136898Y-40124485D01*
X29128249Y-39894101D01*
X29119341Y-39851647D01*
X29083108Y-39678956D01*
X29083107Y-39678951D01*
X29080907Y-39668468D01*
X29076973Y-39658506D01*
X29076971Y-39658500D01*
X29018569Y-39510619D01*
X28996224Y-39454038D01*
X28933915Y-39351355D01*
X28882178Y-39266096D01*
X28882177Y-39266094D01*
X28876623Y-39256942D01*
X28725523Y-39082814D01*
X28695267Y-39058005D01*
X28610244Y-38988291D01*
X28547586Y-38912010D01*
X28518889Y-38817557D01*
X28528522Y-38719312D01*
X28575018Y-38632233D01*
X28612130Y-38595476D01*
X28620432Y-38588801D01*
X28629319Y-38582818D01*
X28637070Y-38575424D01*
X28681605Y-38532940D01*
X28764954Y-38480046D01*
X28862200Y-38463074D01*
X28958538Y-38484609D01*
G37*
%TD.AperFunction*%
M02*
